<svg version="1.1" id="Layer_1" xmlns="http://www.w3.org/2000/svg" xmlns:xlink="http://www.w3.org/1999/xlink" x="0px" y="0px"
	 width="100%" viewBox="0 0 1200 1200" enable-background="new 0 0 1200 1200" xml:space="preserve">
<path fill="#151C48" opacity="1.000000" stroke="none" 
	d="
M665.000000,1201.000000 
	C443.333344,1201.000000 222.166672,1201.000000 1.000000,1201.000000 
	C1.000000,801.000000 1.000000,401.000000 1.000000,1.000000 
	C401.000000,1.000000 801.000000,1.000000 1201.000000,1.000000 
	C1201.000000,401.000000 1201.000000,801.000000 1201.000000,1201.000000 
	C1022.500000,1201.000000 844.000000,1201.000000 665.000000,1201.000000 
M990.048157,708.404663 
	C987.634094,704.840881 985.220032,701.277100 982.785400,697.682983 
	C996.820007,677.234314 1010.703430,657.005920 1025.011230,636.159180 
	C1022.270325,636.159180 1020.469666,636.159180 1018.669006,636.159180 
	C933.836243,636.159180 849.003479,636.139771 764.170776,636.230347 
	C760.780823,636.233948 758.810730,635.435486 757.296387,632.176697 
	C750.156860,616.812500 740.562561,603.073608 729.110352,590.592651 
	C707.683289,567.240845 682.000305,550.343750 651.615723,541.434143 
	C613.055664,530.127258 574.645020,530.965942 537.061462,546.102234 
	C495.655884,562.777771 464.731171,591.019348 444.867371,631.073914 
	C442.978668,634.882385 441.063019,636.279053 436.726196,636.271301 
	C352.060364,636.120361 267.394196,636.159180 182.728073,636.159180 
	C181.035858,636.159180 179.343643,636.159180 176.900970,636.159180 
	C191.387192,657.249084 205.229324,677.401306 219.195160,697.733582 
	C205.302368,717.996521 191.450500,738.199829 177.075867,759.165527 
	C180.291702,759.165527 182.274719,759.165466 184.257751,759.165466 
	C265.090546,759.165466 345.923584,759.240173 426.755737,759.014465 
	C432.774078,758.997620 435.120850,760.902222 437.270447,766.443604 
	C461.226654,828.199524 505.974426,865.688354 570.882812,878.366516 
	C604.268005,884.887512 637.088318,880.819397 668.245911,867.298401 
	C715.104431,846.963928 747.222534,812.297363 764.770386,764.316406 
	C766.216492,760.362366 767.900635,759.059082 772.115417,759.065979 
	C854.114624,759.200256 936.114197,759.165466 1018.113647,759.165466 
	C1020.022217,759.165466 1021.930725,759.165527 1024.911743,759.165527 
	C1012.989990,741.825195 1001.711487,725.420532 990.048157,708.404663 
M573.276184,467.227844 
	C579.337769,474.527771 585.301758,481.911652 591.490417,489.102203 
	C596.876648,495.360382 604.325623,495.577820 609.608154,489.232727 
	C624.626587,471.193390 639.445190,452.985718 654.176147,434.710297 
	C658.199524,429.718903 658.163635,424.044647 653.618408,419.836761 
	C651.211487,417.608551 647.253906,416.218781 643.900513,416.013062 
	C635.330383,415.487244 626.706543,415.837738 617.838562,415.837738 
	C617.838562,413.315002 617.838562,411.491943 617.838501,409.668884 
	C617.837646,386.009644 617.841797,362.350403 617.832947,338.691162 
	C617.830383,331.775787 614.853943,326.408051 608.847290,323.085968 
	C602.800293,319.741547 596.595703,320.134003 590.887512,324.012207 
	C585.092468,327.949493 583.514648,333.935516 583.523132,340.588135 
	C583.553040,363.914124 583.534363,387.240143 583.534180,410.566162 
	C583.534119,412.467804 583.534119,414.369446 583.534119,416.551514 
	C573.775818,416.551514 564.951538,416.417297 556.133423,416.592896 
	C548.733582,416.740234 544.153809,421.550385 545.074951,428.872803 
	C545.479675,432.090485 547.367432,435.446320 549.430542,438.072723 
	C557.038818,447.758179 565.001892,457.164886 573.276184,467.227844 
M755.135742,477.036285 
	C752.843262,499.378021 750.609314,521.725952 748.233337,544.058838 
	C747.056702,555.118530 752.564270,560.599609 763.696167,559.453735 
	C785.375610,557.222046 807.067444,555.109985 828.760498,553.013733 
	C834.142090,552.493774 838.563843,550.416626 840.496948,545.180054 
	C842.352661,540.152893 840.576111,535.901917 836.777954,532.135498 
	C830.772583,526.180420 825.048828,519.941528 818.795715,513.393188 
	C820.821838,511.599213 822.654175,510.144836 824.294128,508.498779 
	C840.628357,492.104095 856.956970,475.703644 873.229736,459.248016 
	C880.120117,452.280151 881.033752,443.872925 875.874817,436.739288 
	C869.036011,427.282898 857.043335,426.600281 848.166199,435.400330 
	C831.374634,452.046112 814.710999,468.820892 797.984131,485.531982 
	C796.724548,486.790497 795.385132,487.969147 793.966736,489.293304 
	C790.784363,486.119232 787.842896,483.209564 784.929138,480.272552 
	C781.881042,477.200073 778.965332,473.987976 775.805542,471.036316 
	C767.727112,463.490295 758.918213,465.754974 755.135742,477.036285 
M409.511688,556.958862 
	C418.956299,557.812622 428.410980,558.569336 437.842743,559.546997 
	C447.548187,560.552979 453.847290,555.110291 452.972626,545.303284 
	C450.977753,522.936707 448.536194,500.609772 446.241272,478.270325 
	C445.721313,473.209045 443.217896,469.600220 438.303528,467.772034 
	C433.363159,465.934143 429.534454,467.735992 426.229187,471.285492 
	C420.249420,477.707153 414.314697,484.170837 408.212463,490.778046 
	C405.681763,488.364655 404.347809,487.138641 403.064484,485.861694 
	C386.304901,469.185089 369.515045,452.538605 352.819611,435.797974 
	C347.359863,430.323456 341.060211,428.211090 333.756775,430.910614 
	C321.777832,435.338348 318.973785,450.091736 328.329376,459.570374 
	C341.426849,472.840118 354.695953,485.941071 367.940002,499.065399 
	C372.968445,504.048401 378.131042,508.895996 383.395844,513.962524 
	C376.541016,520.752991 370.457275,526.674988 364.499634,532.721191 
	C361.030945,536.241455 358.999390,540.580688 360.722351,545.432129 
	C362.476501,550.371399 366.490326,552.894165 371.819946,553.377502 
	C384.083130,554.489685 396.335083,555.726074 409.511688,556.958862 
z"/>
<path fill="#DCCBC5" opacity="1.000000" stroke="none" 
	d="
M990.240601,708.710205 
	C1001.711487,725.420532 1012.989990,741.825195 1024.911743,759.165527 
	C1021.930725,759.165527 1020.022217,759.165466 1018.113647,759.165466 
	C936.114197,759.165466 854.114624,759.200256 772.115417,759.065979 
	C767.900635,759.059082 766.216492,760.362366 764.770386,764.316406 
	C747.222534,812.297363 715.104431,846.963928 668.245911,867.298401 
	C637.088318,880.819397 604.268005,884.887512 570.882812,878.366516 
	C505.974426,865.688354 461.226654,828.199524 437.270447,766.443604 
	C435.120850,760.902222 432.774078,758.997620 426.755737,759.014465 
	C345.923584,759.240173 265.090546,759.165466 184.257751,759.165466 
	C182.274719,759.165466 180.291702,759.165527 177.075867,759.165527 
	C191.450500,738.199829 205.302368,717.996521 219.195160,697.733582 
	C205.229324,677.401306 191.387192,657.249084 176.900970,636.159180 
	C179.343643,636.159180 181.035858,636.159180 182.728073,636.159180 
	C267.394196,636.159180 352.060364,636.120361 436.726196,636.271301 
	C441.063019,636.279053 442.978668,634.882385 444.867371,631.073914 
	C464.731171,591.019348 495.655884,562.777771 537.061462,546.102234 
	C574.645020,530.965942 613.055664,530.127258 651.615723,541.434143 
	C682.000305,550.343750 707.683289,567.240845 729.110352,590.592651 
	C740.562561,603.073608 750.156860,616.812500 757.296387,632.176697 
	C758.810730,635.435486 760.780823,636.233948 764.170776,636.230347 
	C849.003479,636.139771 933.836243,636.159180 1018.669006,636.159180 
	C1020.469666,636.159180 1022.270325,636.159180 1025.011230,636.159180 
	C1010.703430,657.005920 996.820007,677.234314 982.785400,697.682983 
	C985.220032,701.277100 987.634094,704.840881 990.240601,708.710205 
M327.137695,722.800415 
	C325.302734,722.247986 323.467804,721.695557 321.160461,721.000977 
	C321.160461,698.480713 321.160461,675.907349 321.160461,653.579956 
	C313.103119,653.579956 305.560150,653.579956 298.017181,653.579956 
	C298.007172,653.905579 297.997192,654.231201 297.987183,654.556824 
	C299.637817,654.895020 301.288422,655.233276 302.846649,655.552612 
	C302.846649,677.695129 302.846649,699.583862 302.846649,721.411682 
	C293.291748,722.696289 293.250153,722.711548 290.132904,714.221497 
	C283.716827,696.746826 277.320068,679.264954 270.991730,661.758362 
	C269.921448,658.797607 268.997528,656.794189 264.937927,656.772583 
	C260.708832,656.750061 260.071960,659.133606 259.031799,661.966553 
	C253.017288,678.347046 247.108215,694.769226 240.819153,711.044250 
	C239.088730,715.522278 239.380051,721.619690 233.051697,723.303833 
	C237.775253,723.303833 242.498825,723.303833 247.222397,723.303833 
	C247.225235,722.930847 247.228073,722.557861 247.230911,722.184875 
	C245.234482,721.903076 243.238037,721.621277 240.811310,721.278748 
	C242.931427,715.320251 244.817764,709.672119 247.019241,704.149597 
	C247.418091,703.148987 249.083435,702.087524 250.207062,702.038452 
	C255.347122,701.814026 260.502472,701.939880 265.735840,701.939880 
	C267.930237,708.507080 270.020782,714.763489 272.175751,721.212646 
	C269.767883,721.647095 267.870209,721.989441 265.972534,722.331848 
	C265.995575,722.805115 266.018646,723.278442 266.041687,723.751709 
	C267.727509,723.836487 269.413879,724.004211 271.098999,723.992249 
	C280.262329,723.927124 289.425232,723.805054 298.588501,723.726929 
	C308.392670,723.643250 318.197021,723.586548 328.855743,723.930664 
	C337.896515,723.930664 346.937317,723.930664 355.978088,723.930664 
	C355.982727,723.419128 355.987366,722.907654 355.992004,722.396118 
	C354.347656,722.014832 352.703278,721.633545 350.717834,721.173218 
	C350.717834,698.400574 350.717834,675.845581 350.717834,653.407593 
	C342.676483,653.407593 335.054626,653.407593 327.432739,653.407593 
	C327.390320,653.759033 327.347931,654.110474 327.305511,654.461914 
	C329.054352,654.833008 330.803192,655.204102 332.593567,655.583984 
	C332.593567,677.614136 332.593567,699.484436 332.593567,721.088623 
	C330.825958,721.823059 329.419861,722.407288 327.137695,722.800415 
M649.560425,759.161499 
	C646.429443,759.161499 643.298462,759.161499 640.300842,759.161499 
	C636.614441,771.239807 632.163696,775.441711 622.263916,775.574768 
	C607.767090,775.769714 593.264038,775.758789 578.766846,775.577881 
	C569.267151,775.459351 563.542969,770.524841 561.935852,761.738770 
	C561.794800,760.967896 561.568359,760.212708 561.369263,759.399719 
	C531.484070,759.399719 501.906403,759.399719 472.248535,759.399719 
	C486.370697,801.079712 534.731567,847.038330 600.784363,846.892456 
	C666.425842,846.747437 713.516846,802.032959 729.032532,759.161499 
	C702.744202,759.161499 676.643127,759.161499 649.560425,759.161499 
M668.633667,585.790527 
	C592.453308,544.019409 511.179321,582.120239 482.387360,635.705933 
	C561.269043,635.705933 640.184631,635.705933 719.730469,635.705933 
	C706.926697,614.382385 690.079346,598.259460 668.633667,585.790527 
M600.070007,657.934387 
	C590.401123,657.934387 580.732300,657.934387 571.063416,657.934387 
	C571.058594,658.482117 571.053772,659.029907 571.049011,659.577637 
	C572.714233,659.842957 574.379517,660.108276 576.450317,660.438171 
	C576.450317,662.350098 576.450317,664.150146 576.450317,665.950195 
	C576.450378,681.445374 576.483826,696.940674 576.428955,712.435669 
	C576.413513,716.786560 578.453735,722.294373 571.145142,723.378174 
	C581.029968,723.378174 590.914856,723.378174 600.799683,723.378174 
	C600.827942,723.047363 600.856201,722.716614 600.884460,722.385803 
	C599.090088,721.941833 597.295654,721.497864 595.270569,720.996765 
	C595.270569,712.135864 595.175964,703.485168 595.387451,694.841919 
	C595.414551,693.731995 596.977722,691.777222 597.921509,691.719360 
	C603.004761,691.407898 608.117188,691.571960 613.333801,691.571960 
	C613.333801,701.912170 613.333801,711.503296 613.333801,721.107117 
	C611.356689,721.606384 609.647949,722.037842 607.939270,722.469299 
	C608.018372,722.746094 608.097412,723.022888 608.176453,723.299683 
	C618.074158,723.299683 627.971863,723.299683 637.869568,723.299683 
	C637.883118,722.960815 637.896606,722.622009 637.910156,722.283142 
	C636.221619,721.938965 634.533081,721.594788 632.715576,721.224304 
	C632.715576,700.819214 632.715576,680.599976 632.715576,660.450867 
	C634.665649,660.046326 636.278259,659.711792 637.890869,659.377258 
	C637.837830,659.018616 637.784729,658.659912 637.731689,658.301270 
	C627.851562,658.301270 617.971436,658.301270 608.091309,658.301270 
	C608.056030,658.688293 608.020691,659.075256 607.985413,659.462280 
	C609.765198,659.787659 611.544983,660.113037 613.607300,660.490051 
	C613.607300,668.966187 613.689636,677.277344 613.501038,685.582336 
	C613.478027,686.597961 612.045654,688.399048 611.192627,688.444336 
	C606.084473,688.715271 600.954590,688.578613 595.574829,688.578613 
	C595.574829,678.760376 595.574829,669.531982 595.574829,661.014160 
	C597.629028,659.997131 599.188171,659.225159 600.070007,657.934387 
M855.621948,721.676208 
	C855.347656,719.930664 854.875183,718.189941 854.832275,716.438721 
	C854.612305,707.462219 854.900330,698.453247 854.232178,689.513855 
	C853.674255,682.048523 849.082642,678.451599 841.674133,677.876526 
	C835.581238,677.403564 830.322205,678.811890 825.842224,685.354126 
	C825.842224,673.472412 825.842224,663.378601 825.842224,653.450317 
	C818.010132,653.450317 810.565063,653.450317 803.119995,653.450317 
	C803.084534,653.783691 803.049011,654.117065 803.013550,654.450439 
	C804.587463,654.818176 806.161377,655.185913 807.754883,655.558289 
	C807.754883,677.649353 807.754883,699.550903 807.754883,721.389038 
	C805.951233,721.813354 804.435913,722.169800 802.920654,722.526306 
	C803.005737,722.863098 803.090759,723.199829 803.175842,723.536621 
	C812.073914,723.536621 820.971985,723.536621 829.870117,723.536621 
	C825.421936,722.236206 826.043518,718.855042 826.076782,715.690369 
	C826.134521,710.195190 825.862305,704.685852 826.172424,699.207642 
	C826.385620,695.442139 826.823608,691.513672 828.175110,688.054321 
	C828.983215,685.985718 831.747314,684.681396 833.632202,683.033508 
	C834.649414,685.074890 836.458801,687.083435 836.544983,689.163391 
	C836.896423,697.642700 836.680725,706.144287 836.757996,714.636841 
	C836.789307,718.078064 837.412231,721.671753 833.187622,723.500000 
	C842.059998,723.500000 850.932373,723.500000 859.804749,723.500000 
	C859.842773,723.133118 859.880737,722.766296 859.918701,722.399414 
	C858.784119,722.202148 857.649597,722.004944 855.621948,721.676208 
M547.283569,720.930237 
	C547.220886,711.944336 547.203003,702.957886 547.084595,693.972717 
	C546.922058,681.636780 540.718384,676.075195 528.689880,678.171753 
	C525.220154,678.776489 522.089355,681.325684 518.849792,682.959961 
	C518.640137,681.994995 518.304810,680.451477 518.083252,679.431641 
	C510.314941,679.431641 502.978729,679.431641 495.642548,679.431641 
	C495.641754,679.768982 495.640930,680.106323 495.640106,680.443665 
	C497.155640,680.762451 498.671204,681.081177 500.252655,681.413818 
	C500.252655,694.817810 500.252655,708.033936 500.252655,721.324402 
	C498.461945,721.736328 496.969513,722.079651 495.477112,722.422974 
	C495.506592,722.712708 495.536102,723.002502 495.565613,723.292236 
	C504.531372,723.292236 513.497131,723.292236 521.259827,723.292236 
	C520.282654,721.079041 518.776001,719.155762 518.674377,717.160828 
	C518.353149,710.850647 518.230164,704.490540 518.676025,698.195435 
	C518.962769,694.146362 519.997498,690.024536 521.490234,686.248901 
	C522.079041,684.759583 524.823303,684.122498 526.586060,683.097290 
	C527.381226,684.786560 528.832520,686.463379 528.864868,688.167114 
	C529.073364,699.136597 528.971497,710.112000 528.971497,721.115540 
	C527.645142,721.719177 526.454773,722.260925 524.144531,723.312378 
	C534.354919,723.312378 543.233032,723.312378 552.111084,723.312378 
	C552.119141,722.967712 552.127197,722.623108 552.135193,722.278442 
	C550.719116,722.056458 549.302979,721.834473 547.283569,720.930237 
M933.193176,678.740051 
	C926.490662,678.740051 919.788086,678.740051 913.085571,678.740051 
	C913.095947,679.322571 913.106323,679.905151 913.116760,680.487671 
	C914.640503,680.764648 916.164246,681.041687 917.780884,681.335571 
	C917.780884,694.763123 917.780884,708.030151 917.780884,721.300781 
	C916.030090,721.751709 914.482483,722.150330 912.934875,722.548950 
	C913.005737,722.827271 913.076538,723.105591 913.147339,723.383911 
	C922.066406,723.383911 930.985474,723.383911 939.904541,723.383911 
	C939.932983,723.078674 939.961426,722.773438 939.989807,722.468201 
	C938.701416,722.028137 937.412964,721.588013 936.064697,721.127502 
	C936.064697,712.713684 935.896545,704.548340 936.154236,696.396423 
	C936.246704,693.470764 936.818359,690.278687 938.190552,687.764526 
	C939.281189,685.766357 941.923889,684.615295 943.877563,683.088196 
	C944.765381,685.055908 946.349182,686.998535 946.421204,688.995667 
	C946.745056,697.974182 946.808899,706.972473 946.578674,715.953735 
	C946.515381,718.422791 945.110596,720.857544 944.286316,723.416931 
	C951.985718,723.416931 960.902283,723.416931 969.818787,723.416931 
	C969.850830,723.086792 969.882874,722.756592 969.914917,722.426453 
	C968.296448,722.053467 966.677917,721.680481 964.659424,721.215271 
	C964.659424,711.808105 964.971252,702.486633 964.581482,693.194641 
	C964.081482,681.274597 958.003479,676.200623 946.347229,678.165710 
	C942.754822,678.771301 939.508240,681.428650 936.618042,682.886780 
	C936.001770,681.875854 935.050171,680.314819 933.193176,678.740051 
M683.852234,711.336182 
	C683.653381,704.183472 683.800415,696.999390 683.156372,689.886963 
	C682.537415,683.050781 679.300232,679.333862 672.513977,678.653137 
	C665.986145,677.998535 659.289307,678.572449 652.711670,679.133057 
	C650.601257,679.312866 648.366516,680.857971 646.658325,682.325256 
	C643.431030,685.097229 642.886047,691.540222 645.237488,694.727844 
	C647.535522,697.843079 653.206970,698.609802 657.097961,696.331299 
	C660.526428,694.323486 661.855774,688.599060 659.691650,685.878723 
	C658.760254,684.707947 657.733337,683.131165 657.826477,681.814941 
	C657.879272,681.068848 660.562988,679.620483 661.270325,679.992676 
	C662.780762,680.787415 664.632019,682.449036 664.829407,683.954041 
	C665.555359,689.491272 665.663025,695.109619 665.995605,700.572327 
	C659.972046,701.389648 654.641235,701.706055 649.521362,702.915344 
	C643.722046,704.285034 641.229553,707.920105 641.290466,713.287476 
	C641.358215,719.262146 644.178711,722.867065 650.130859,724.266785 
	C656.421692,725.746155 662.311462,725.493408 666.434204,719.474548 
	C671.027222,724.870667 681.099792,726.706177 686.596802,723.337891 
	C690.492249,720.950928 692.346497,714.541077 690.247498,709.715881 
	C689.880615,710.948975 689.747009,711.935669 689.309937,712.761780 
	C688.189392,714.879578 686.934021,716.926086 685.732544,719.001099 
	C685.105896,716.761169 684.479187,714.521301 683.852234,711.336182 
M777.480591,719.583252 
	C781.802063,724.625305 791.317322,726.649292 797.016663,723.738770 
	C801.169128,721.618225 803.174133,715.730469 801.355713,709.125305 
	C800.570862,712.322998 800.173279,714.684753 799.359558,716.893250 
	C799.033752,717.777588 797.791992,718.324402 796.967163,719.024902 
	C796.322144,718.187683 795.293457,717.424683 795.114319,716.497437 
	C794.771667,714.723633 794.903564,712.856628 794.853821,711.027893 
	C794.663940,704.048645 794.828369,697.037537 794.197144,690.098694 
	C793.551880,683.004761 790.293884,679.299377 783.256165,678.589294 
	C776.898682,677.947876 770.366577,678.490784 763.967590,679.099915 
	C761.707092,679.315125 759.310913,680.925964 757.508057,682.505920 
	C754.318115,685.301880 753.930786,691.861389 756.347900,694.916992 
	C758.594421,697.756958 764.084106,698.503418 767.843262,696.479919 
	C771.539917,694.490173 772.921753,688.609802 770.493958,685.792664 
	C769.591736,684.745728 768.279297,682.753418 768.656982,682.177002 
	C769.407532,681.031433 771.308105,679.845703 772.533203,680.027344 
	C773.762329,680.209595 775.555481,681.939453 775.702454,683.159607 
	C776.407959,689.013916 776.639404,694.925293 777.018311,700.508545 
	C770.701233,701.417969 765.241760,701.934143 759.911987,703.062500 
	C756.133728,703.862366 753.489258,706.335327 752.726074,710.461243 
	C751.645935,716.301025 753.516846,721.038696 757.954041,723.254089 
	C764.680603,726.612427 772.462158,725.260864 777.480591,719.583252 
M897.353882,679.907043 
	C889.261597,676.828918 881.023926,677.246155 872.821838,679.190063 
	C870.814941,679.665833 868.801758,680.892761 867.232971,682.275391 
	C864.037842,685.091248 863.216492,690.888489 865.444153,694.228882 
	C868.124634,698.248230 872.210449,698.088928 876.184509,696.997864 
	C880.580811,695.790833 882.784058,689.214294 880.247070,685.991638 
	C879.292114,684.778564 878.342041,683.207703 878.314087,681.781921 
	C878.301819,681.155701 881.039124,679.636414 881.760864,680.008911 
	C883.286987,680.796509 885.263916,682.492737 885.368469,683.938293 
	C885.779846,689.625061 885.537048,695.359131 885.537048,700.591553 
	C879.659058,701.497803 873.996094,701.973206 868.556091,703.337585 
	C864.341187,704.394714 862.073303,707.750488 861.953918,712.296509 
	C861.833191,716.893921 862.811096,720.864441 867.367188,723.172302 
	C874.000122,726.532288 881.812988,725.241516 886.753052,719.855896 
	C892.514648,725.097046 902.244812,726.661255 907.380615,723.172119 
	C910.989929,720.719788 912.649414,714.937317 910.730530,708.893616 
	C910.272034,711.321777 910.269104,712.761780 909.714600,713.942749 
	C908.866211,715.749695 907.637451,717.377991 906.570190,719.082092 
	C905.773010,717.278381 904.365051,715.500793 904.286499,713.666382 
	C903.980530,706.516663 904.194519,699.346436 904.020447,692.188599 
	C903.902710,687.345581 902.504150,682.991089 897.353882,679.907043 
M450.832703,718.657227 
	C458.355621,725.470642 467.270752,725.837646 476.574097,724.096375 
	C485.714111,722.385681 490.752869,717.523560 492.353149,707.929260 
	C493.976166,698.198975 494.042664,688.600464 485.162262,681.605408 
	C484.902771,681.400940 484.629395,681.197205 484.331512,681.060730 
	C474.200439,676.416931 464.009613,676.179138 454.272339,681.737915 
	C451.446838,683.350891 448.810211,686.425049 447.549072,689.440857 
	C443.412781,699.332336 443.445190,709.149902 450.832703,718.657227 
M732.529785,723.998901 
	C738.331177,723.998901 744.132568,723.998901 749.934021,723.998901 
	C749.964661,723.495239 749.995361,722.991577 750.026062,722.487915 
	C748.442017,722.114014 746.858032,721.740112 744.744629,721.241272 
	C744.744629,698.511414 744.744629,675.825989 744.744629,653.506348 
	C736.577942,653.506348 728.990967,653.506348 721.404053,653.506348 
	C721.385498,653.833252 721.367004,654.160217 721.348450,654.487122 
	C723.129700,654.854919 724.911011,655.222778 726.535828,655.558228 
	C726.535828,677.780518 726.535828,699.650940 726.535828,721.390259 
	C724.721497,721.816589 723.292053,722.152527 721.862610,722.488403 
	C721.909424,722.991882 721.956238,723.495422 722.003052,723.998901 
	C725.184143,723.998901 728.365173,723.998901 732.529785,723.998901 
M697.004150,712.442444 
	C697.004150,715.402588 697.004150,718.362732 697.004150,721.241211 
	C695.032776,721.757507 693.492920,722.160767 691.953125,722.564087 
	C692.024353,722.859802 692.095581,723.155518 692.166748,723.451233 
	C701.463013,723.451233 710.759277,723.451233 720.055481,723.451233 
	C720.091064,723.124695 720.126587,722.798157 720.162170,722.471619 
	C718.563660,722.076904 716.965210,721.682251 714.829712,721.154907 
	C714.829712,698.430969 714.829712,675.756287 714.829712,653.502197 
	C706.795410,653.502197 699.349670,653.502197 691.903870,653.502197 
	C691.882935,653.835388 691.862000,654.168579 691.841064,654.501709 
	C693.451111,654.836121 695.061157,655.170532 697.004150,655.574097 
	C697.004150,674.272156 697.004150,692.865601 697.004150,712.442444 
M401.230835,678.724854 
	C398.480499,678.724854 395.730164,678.724854 392.979828,678.724854 
	C392.980347,679.323242 392.980865,679.921570 392.981415,680.519958 
	C394.671265,680.782166 396.361145,681.044434 398.601929,681.392212 
	C395.313171,690.822083 392.065155,700.135254 388.415131,710.600952 
	C384.976562,700.176270 381.916290,690.898560 378.837646,681.565186 
	C380.518555,681.094849 381.942230,680.696533 383.365875,680.298218 
	C383.316376,679.982178 383.266876,679.666138 383.217377,679.350098 
	C374.156647,679.350098 365.095917,679.350098 356.858612,679.350098 
	C358.522644,681.820374 360.503387,683.898193 361.486481,686.372375 
	C365.352295,696.101868 369.040192,705.908264 372.516663,715.783752 
	C374.325287,720.921570 375.497589,726.331055 384.471191,723.357788 
	C381.372375,729.955688 379.326050,735.215637 376.460205,739.982849 
	C375.266144,741.969238 372.418182,743.102173 370.115265,744.181458 
	C369.544067,744.449158 368.166870,742.997009 367.160156,742.335388 
	C367.830566,741.611328 368.551208,740.926697 369.158112,740.152832 
	C369.859772,739.258118 370.875427,738.349121 371.032806,737.334412 
	C371.640045,733.419067 369.849670,730.934631 365.950867,730.084595 
	C361.252197,729.059998 357.254669,730.872925 355.981049,734.555115 
	C353.994202,740.299133 357.130554,745.628845 363.303741,746.998779 
	C372.642151,749.071167 379.007996,745.367859 383.017609,734.575989 
	C388.399567,720.090637 393.159698,705.375061 398.460632,690.858276 
	C400.032898,686.552551 399.546661,680.497070 406.291656,679.066223 
	C404.903381,678.952515 403.515137,678.838745 401.230835,678.724854 
M409.748352,682.234131 
	C401.457733,692.728455 404.547485,703.794617 417.067963,708.252197 
	C420.662292,709.531982 424.496521,710.252991 427.909729,711.881897 
	C429.868469,712.816711 431.202545,715.060547 432.817810,716.714966 
	C430.858765,718.455566 429.150787,721.184814 426.895233,721.757385 
	C419.091888,723.738586 412.821808,720.215637 409.037354,712.580261 
	C408.225525,710.942200 407.426575,709.297852 406.621674,707.656372 
	C406.296997,707.766357 405.972290,707.876404 405.647614,707.986389 
	C405.647614,713.578186 405.647614,719.170044 405.647614,726.075867 
	C409.006409,720.997131 412.191467,722.129150 416.071686,723.518677 
	C419.529755,724.756897 423.619110,725.008179 427.321869,724.631958 
	C436.151947,723.734863 440.532104,719.117737 441.539459,710.683838 
	C442.516327,702.505066 439.032440,696.907166 430.773834,693.816711 
	C426.898499,692.366638 422.727173,691.622009 419.005341,689.882812 
	C417.103302,688.994019 415.896851,686.616699 414.375977,684.912170 
	C416.241058,683.501831 417.915283,681.374451 420.007477,680.817566 
	C425.939575,679.238831 431.197418,681.892578 434.737091,687.569214 
	C435.713562,689.135254 436.569489,690.776428 437.480713,692.383118 
	C437.804962,692.236328 438.129181,692.089478 438.453430,691.942627 
	C438.453430,687.251648 438.453430,682.560730 438.453430,676.325562 
	C435.617218,681.355408 432.811401,680.126892 429.643585,679.083740 
	C422.864075,676.851379 416.218201,676.994812 409.748352,682.234131 
z"/>
<path fill="#DDCCC5" opacity="1.000000" stroke="none" 
	d="
M573.053833,466.952148 
	C565.001892,457.164886 557.038818,447.758179 549.430542,438.072723 
	C547.367432,435.446320 545.479675,432.090485 545.074951,428.872803 
	C544.153809,421.550385 548.733582,416.740234 556.133423,416.592896 
	C564.951538,416.417297 573.775818,416.551514 583.534119,416.551514 
	C583.534119,414.369446 583.534119,412.467804 583.534180,410.566162 
	C583.534363,387.240143 583.553040,363.914124 583.523132,340.588135 
	C583.514648,333.935516 585.092468,327.949493 590.887512,324.012207 
	C596.595703,320.134003 602.800293,319.741547 608.847290,323.085968 
	C614.853943,326.408051 617.830383,331.775787 617.832947,338.691162 
	C617.841797,362.350403 617.837646,386.009644 617.838501,409.668884 
	C617.838562,411.491943 617.838562,413.315002 617.838562,415.837738 
	C626.706543,415.837738 635.330383,415.487244 643.900513,416.013062 
	C647.253906,416.218781 651.211487,417.608551 653.618408,419.836761 
	C658.163635,424.044647 658.199524,429.718903 654.176147,434.710297 
	C639.445190,452.985718 624.626587,471.193390 609.608154,489.232727 
	C604.325623,495.577820 596.876648,495.360382 591.490417,489.102203 
	C585.301758,481.911652 579.337769,474.527771 573.053833,466.952148 
z"/>
<path fill="#DDCCC5" opacity="1.000000" stroke="none" 
	d="
M755.206299,476.627228 
	C758.918213,465.754974 767.727112,463.490295 775.805542,471.036316 
	C778.965332,473.987976 781.881042,477.200073 784.929138,480.272552 
	C787.842896,483.209564 790.784363,486.119232 793.966736,489.293304 
	C795.385132,487.969147 796.724548,486.790497 797.984131,485.531982 
	C814.710999,468.820892 831.374634,452.046112 848.166199,435.400330 
	C857.043335,426.600281 869.036011,427.282898 875.874817,436.739288 
	C881.033752,443.872925 880.120117,452.280151 873.229736,459.248016 
	C856.956970,475.703644 840.628357,492.104095 824.294128,508.498779 
	C822.654175,510.144836 820.821838,511.599213 818.795715,513.393188 
	C825.048828,519.941528 830.772583,526.180420 836.777954,532.135498 
	C840.576111,535.901917 842.352661,540.152893 840.496948,545.180054 
	C838.563843,550.416626 834.142090,552.493774 828.760498,553.013733 
	C807.067444,555.109985 785.375610,557.222046 763.696167,559.453735 
	C752.564270,560.599609 747.056702,555.118530 748.233337,544.058838 
	C750.609314,521.725952 752.843262,499.378021 755.206299,476.627228 
z"/>
<path fill="#DDCCC5" opacity="1.000000" stroke="none" 
	d="
M409.051636,556.935425 
	C396.335083,555.726074 384.083130,554.489685 371.819946,553.377502 
	C366.490326,552.894165 362.476501,550.371399 360.722351,545.432129 
	C358.999390,540.580688 361.030945,536.241455 364.499634,532.721191 
	C370.457275,526.674988 376.541016,520.752991 383.395844,513.962524 
	C378.131042,508.895996 372.968445,504.048401 367.940002,499.065399 
	C354.695953,485.941071 341.426849,472.840118 328.329376,459.570374 
	C318.973785,450.091736 321.777832,435.338348 333.756775,430.910614 
	C341.060211,428.211090 347.359863,430.323456 352.819611,435.797974 
	C369.515045,452.538605 386.304901,469.185089 403.064484,485.861694 
	C404.347809,487.138641 405.681763,488.364655 408.212463,490.778046 
	C414.314697,484.170837 420.249420,477.707153 426.229187,471.285492 
	C429.534454,467.735992 433.363159,465.934143 438.303528,467.772034 
	C443.217896,469.600220 445.721313,473.209045 446.241272,478.270325 
	C448.536194,500.609772 450.977753,522.936707 452.972626,545.303284 
	C453.847290,555.110291 447.548187,560.552979 437.842743,559.546997 
	C428.410980,558.569336 418.956299,557.812622 409.051636,556.935425 
z"/>
<path fill="#161D49" opacity="1.000000" stroke="none" 
	d="
M650.051270,759.161499 
	C676.643127,759.161499 702.744202,759.161499 729.032532,759.161499 
	C713.516846,802.032959 666.425842,846.747437 600.784363,846.892456 
	C534.731567,847.038330 486.370697,801.079712 472.248535,759.399719 
	C501.906403,759.399719 531.484070,759.399719 561.369263,759.399719 
	C561.568359,760.212708 561.794800,760.967896 561.935852,761.738770 
	C563.542969,770.524841 569.267151,775.459351 578.766846,775.577881 
	C593.264038,775.758789 607.767090,775.769714 622.263916,775.574768 
	C632.163696,775.441711 636.614441,771.239807 640.300842,759.161499 
	C643.298462,759.161499 646.429443,759.161499 650.051270,759.161499 
z"/>
<path fill="#161D48" opacity="1.000000" stroke="none" 
	d="
M668.953857,585.971741 
	C690.079346,598.259460 706.926697,614.382385 719.730469,635.705933 
	C640.184631,635.705933 561.269043,635.705933 482.387360,635.705933 
	C511.179321,582.120239 592.453308,544.019409 668.953857,585.971741 
z"/>
<path fill="#19204B" opacity="1.000000" stroke="none" 
	d="
M328.001312,723.518005 
	C318.197021,723.586548 308.392670,723.643250 298.588501,723.726929 
	C289.425232,723.805054 280.262329,723.927124 271.098999,723.992249 
	C269.413879,724.004211 267.727509,723.836487 266.041687,723.751709 
	C266.018646,723.278442 265.995575,722.805115 265.972534,722.331848 
	C267.870209,721.989441 269.767883,721.647095 272.175751,721.212646 
	C270.020782,714.763489 267.930237,708.507080 265.735840,701.939880 
	C260.502472,701.939880 255.347122,701.814026 250.207062,702.038452 
	C249.083435,702.087524 247.418091,703.148987 247.019241,704.149597 
	C244.817764,709.672119 242.931427,715.320251 240.811310,721.278748 
	C243.238037,721.621277 245.234482,721.903076 247.230911,722.184875 
	C247.228073,722.557861 247.225235,722.930847 247.222397,723.303833 
	C242.498825,723.303833 237.775253,723.303833 233.051697,723.303833 
	C239.380051,721.619690 239.088730,715.522278 240.819153,711.044250 
	C247.108215,694.769226 253.017288,678.347046 259.031799,661.966553 
	C260.071960,659.133606 260.708832,656.750061 264.937927,656.772583 
	C268.997528,656.794189 269.921448,658.797607 270.991730,661.758362 
	C277.320068,679.264954 283.716827,696.746826 290.132904,714.221497 
	C293.250153,722.711548 293.291748,722.696289 302.846649,721.411682 
	C302.846649,699.583862 302.846649,677.695129 302.846649,655.552612 
	C301.288422,655.233276 299.637817,654.895020 297.987183,654.556824 
	C297.997192,654.231201 298.007172,653.905579 298.017181,653.579956 
	C305.560150,653.579956 313.103119,653.579956 321.160461,653.579956 
	C321.160461,675.907349 321.160461,698.480713 321.160461,721.000977 
	C323.467804,721.695557 325.302734,722.247986 327.582642,722.981689 
	C328.027618,723.162964 328.001312,723.518005 328.001312,723.518005 
M260.143402,685.312927 
	C259.280304,682.717224 258.417206,680.121521 257.052795,676.018188 
	C254.008865,684.548035 251.495239,691.591736 248.923294,698.798950 
	C254.330475,698.798950 259.186401,698.798950 264.595673,698.798950 
	C263.090332,694.214294 261.750641,690.134094 260.143402,685.312927 
z"/>
<path fill="#181F4A" opacity="1.000000" stroke="none" 
	d="
M600.408691,658.193787 
	C599.188171,659.225159 597.629028,659.997131 595.574829,661.014160 
	C595.574829,669.531982 595.574829,678.760376 595.574829,688.578613 
	C600.954590,688.578613 606.084473,688.715271 611.192627,688.444336 
	C612.045654,688.399048 613.478027,686.597961 613.501038,685.582336 
	C613.689636,677.277344 613.607300,668.966187 613.607300,660.490051 
	C611.544983,660.113037 609.765198,659.787659 607.985413,659.462280 
	C608.020691,659.075256 608.056030,658.688293 608.091309,658.301270 
	C617.971436,658.301270 627.851562,658.301270 637.731689,658.301270 
	C637.784729,658.659912 637.837830,659.018616 637.890869,659.377258 
	C636.278259,659.711792 634.665649,660.046326 632.715576,660.450867 
	C632.715576,680.599976 632.715576,700.819214 632.715576,721.224304 
	C634.533081,721.594788 636.221619,721.938965 637.910156,722.283142 
	C637.896606,722.622009 637.883118,722.960815 637.869568,723.299683 
	C627.971863,723.299683 618.074158,723.299683 608.176453,723.299683 
	C608.097412,723.022888 608.018372,722.746094 607.939270,722.469299 
	C609.647949,722.037842 611.356689,721.606384 613.333801,721.107117 
	C613.333801,711.503296 613.333801,701.912170 613.333801,691.571960 
	C608.117188,691.571960 603.004761,691.407898 597.921509,691.719360 
	C596.977722,691.777222 595.414551,693.731995 595.387451,694.841919 
	C595.175964,703.485168 595.270569,712.135864 595.270569,720.996765 
	C597.295654,721.497864 599.090088,721.941833 600.884460,722.385803 
	C600.856201,722.716614 600.827942,723.047363 600.799683,723.378174 
	C590.914856,723.378174 581.029968,723.378174 571.145142,723.378174 
	C578.453735,722.294373 576.413513,716.786560 576.428955,712.435669 
	C576.483826,696.940674 576.450378,681.445374 576.450317,665.950195 
	C576.450317,664.150146 576.450317,662.350098 576.450317,660.438171 
	C574.379517,660.108276 572.714233,659.842957 571.049011,659.577637 
	C571.053772,659.029907 571.058594,658.482117 571.063416,657.934387 
	C580.732300,657.934387 590.401123,657.934387 600.408691,658.193787 
z"/>
<path fill="#171E49" opacity="1.000000" stroke="none" 
	d="
M856.068481,721.741943 
	C857.649597,722.004944 858.784119,722.202148 859.918701,722.399414 
	C859.880737,722.766296 859.842773,723.133118 859.804749,723.500000 
	C850.932373,723.500000 842.059998,723.500000 833.187622,723.500000 
	C837.412231,721.671753 836.789307,718.078064 836.757996,714.636841 
	C836.680725,706.144287 836.896423,697.642700 836.544983,689.163391 
	C836.458801,687.083435 834.649414,685.074890 833.632202,683.033569 
	C831.747314,684.681396 828.983215,685.985718 828.175110,688.054321 
	C826.823608,691.513672 826.385620,695.442139 826.172424,699.207642 
	C825.862305,704.685852 826.134521,710.195190 826.076782,715.690369 
	C826.043518,718.855042 825.421936,722.236206 829.870117,723.536621 
	C820.971985,723.536621 812.073914,723.536621 803.175842,723.536621 
	C803.090759,723.199829 803.005737,722.863098 802.920654,722.526306 
	C804.435913,722.169800 805.951233,721.813354 807.754883,721.389038 
	C807.754883,699.550903 807.754883,677.649353 807.754883,655.558289 
	C806.161377,655.185913 804.587463,654.818176 803.013550,654.450439 
	C803.049011,654.117065 803.084534,653.783691 803.119995,653.450317 
	C810.565063,653.450317 818.010132,653.450317 825.842224,653.450317 
	C825.842224,663.378601 825.842224,673.472412 825.842224,685.354126 
	C830.322205,678.811890 835.581238,677.403564 841.674133,677.876526 
	C849.082642,678.451599 853.674255,682.048523 854.232178,689.513855 
	C854.900330,698.453247 854.612305,707.462219 854.832275,716.438721 
	C854.875183,718.189941 855.347656,719.930664 856.068481,721.741943 
z"/>
<path fill="#19204B" opacity="1.000000" stroke="none" 
	d="
M547.585205,721.271362 
	C549.302979,721.834473 550.719116,722.056458 552.135193,722.278442 
	C552.127197,722.623108 552.119141,722.967712 552.111084,723.312378 
	C543.233032,723.312378 534.354919,723.312378 524.144531,723.312378 
	C526.454773,722.260925 527.645142,721.719177 528.971497,721.115540 
	C528.971497,710.112000 529.073364,699.136597 528.864868,688.167114 
	C528.832520,686.463379 527.381226,684.786560 526.586060,683.097290 
	C524.823303,684.122498 522.079041,684.759583 521.490234,686.248901 
	C519.997498,690.024536 518.962769,694.146362 518.676025,698.195435 
	C518.230164,704.490540 518.353149,710.850647 518.674377,717.160828 
	C518.776001,719.155762 520.282654,721.079041 521.259827,723.292236 
	C513.497131,723.292236 504.531372,723.292236 495.565613,723.292236 
	C495.536102,723.002502 495.506592,722.712708 495.477112,722.422974 
	C496.969513,722.079651 498.461945,721.736328 500.252655,721.324402 
	C500.252655,708.033936 500.252655,694.817810 500.252655,681.413818 
	C498.671204,681.081177 497.155640,680.762451 495.640106,680.443665 
	C495.640930,680.106323 495.641754,679.768982 495.642548,679.431641 
	C502.978729,679.431641 510.314941,679.431641 518.083252,679.431641 
	C518.304810,680.451477 518.640137,681.994995 518.849792,682.959961 
	C522.089355,681.325684 525.220154,678.776489 528.689880,678.171753 
	C540.718384,676.075195 546.922058,681.636780 547.084595,693.972717 
	C547.203003,702.957886 547.220886,711.944336 547.585205,721.271362 
z"/>
<path fill="#171E49" opacity="1.000000" stroke="none" 
	d="
M933.645874,678.746948 
	C935.050171,680.314819 936.001770,681.875854 936.618042,682.886780 
	C939.508240,681.428650 942.754822,678.771301 946.347229,678.165710 
	C958.003479,676.200623 964.081482,681.274597 964.581482,693.194641 
	C964.971252,702.486633 964.659424,711.808105 964.659424,721.215271 
	C966.677917,721.680481 968.296448,722.053467 969.914917,722.426453 
	C969.882874,722.756592 969.850830,723.086792 969.818787,723.416931 
	C960.902283,723.416931 951.985718,723.416931 944.286316,723.416931 
	C945.110596,720.857544 946.515381,718.422791 946.578674,715.953735 
	C946.808899,706.972473 946.745056,697.974182 946.421204,688.995667 
	C946.349182,686.998535 944.765381,685.055908 943.877563,683.088196 
	C941.923889,684.615295 939.281189,685.766357 938.190552,687.764526 
	C936.818359,690.278687 936.246704,693.470764 936.154236,696.396423 
	C935.896545,704.548340 936.064697,712.713684 936.064697,721.127502 
	C937.412964,721.588013 938.701416,722.028137 939.989807,722.468201 
	C939.961426,722.773438 939.932983,723.078674 939.904541,723.383911 
	C930.985474,723.383911 922.066406,723.383911 913.147339,723.383911 
	C913.076538,723.105591 913.005737,722.827271 912.934875,722.548950 
	C914.482483,722.150330 916.030090,721.751709 917.780884,721.300781 
	C917.780884,708.030151 917.780884,694.763123 917.780884,681.335571 
	C916.164246,681.041687 914.640503,680.764648 913.116760,680.487671 
	C913.106323,679.905151 913.095947,679.322571 913.085571,678.740051 
	C919.788086,678.740051 926.490662,678.740051 933.645874,678.746948 
z"/>
<path fill="#1A214B" opacity="1.000000" stroke="none" 
	d="
M683.852356,711.808777 
	C684.479187,714.521301 685.105896,716.761169 685.732544,719.001099 
	C686.934021,716.926086 688.189392,714.879578 689.309937,712.761780 
	C689.747009,711.935669 689.880615,710.948975 690.247498,709.715881 
	C692.346497,714.541077 690.492249,720.950928 686.596802,723.337891 
	C681.099792,726.706177 671.027222,724.870667 666.434204,719.474548 
	C662.311462,725.493408 656.421692,725.746155 650.130859,724.266785 
	C644.178711,722.867065 641.358215,719.262146 641.290466,713.287476 
	C641.229553,707.920105 643.722046,704.285034 649.521362,702.915344 
	C654.641235,701.706055 659.972046,701.389648 665.995605,700.572327 
	C665.663025,695.109619 665.555359,689.491272 664.829407,683.954041 
	C664.632019,682.449036 662.780762,680.787415 661.270325,679.992676 
	C660.562988,679.620483 657.879272,681.068848 657.826477,681.814941 
	C657.733337,683.131165 658.760254,684.707947 659.691650,685.878723 
	C661.855774,688.599060 660.526428,694.323486 657.097961,696.331299 
	C653.206970,698.609802 647.535522,697.843079 645.237488,694.727844 
	C642.886047,691.540222 643.431030,685.097229 646.658325,682.325256 
	C648.366516,680.857971 650.601257,679.312866 652.711670,679.133057 
	C659.289307,678.572449 665.986145,677.998535 672.513977,678.653137 
	C679.300232,679.333862 682.537415,683.050781 683.156372,689.886963 
	C683.800415,696.999390 683.653381,704.183472 683.852356,711.808777 
M665.791565,705.939331 
	C664.075684,703.312317 662.344421,703.327820 661.025085,706.392944 
	C659.081787,710.907532 659.451599,715.546448 661.107849,721.246826 
	C666.675781,716.920898 665.506287,711.620605 665.791565,705.939331 
z"/>
<path fill="#1A214B" opacity="1.000000" stroke="none" 
	d="
M777.200745,719.771484 
	C772.462158,725.260864 764.680603,726.612427 757.954041,723.254089 
	C753.516846,721.038696 751.645935,716.301025 752.726074,710.461243 
	C753.489258,706.335327 756.133728,703.862366 759.911987,703.062500 
	C765.241760,701.934143 770.701233,701.417969 777.018311,700.508545 
	C776.639404,694.925293 776.407959,689.013916 775.702454,683.159607 
	C775.555481,681.939453 773.762329,680.209595 772.533203,680.027344 
	C771.308105,679.845703 769.407532,681.031433 768.656982,682.177002 
	C768.279297,682.753418 769.591736,684.745728 770.493958,685.792664 
	C772.921753,688.609802 771.539917,694.490173 767.843262,696.479919 
	C764.084106,698.503418 758.594421,697.756958 756.347900,694.916992 
	C753.930786,691.861389 754.318115,685.301880 757.508057,682.505920 
	C759.310913,680.925964 761.707092,679.315125 763.967590,679.099915 
	C770.366577,678.490784 776.898682,677.947876 783.256165,678.589294 
	C790.293884,679.299377 793.551880,683.004761 794.197144,690.098694 
	C794.828369,697.037537 794.663940,704.048645 794.853821,711.027893 
	C794.903564,712.856628 794.771667,714.723633 795.114319,716.497437 
	C795.293457,717.424683 796.322144,718.187683 796.967163,719.024902 
	C797.791992,718.324402 799.033752,717.777588 799.359558,716.893250 
	C800.173279,714.684753 800.570862,712.322998 801.355713,709.125305 
	C803.174133,715.730469 801.169128,721.618225 797.016663,723.738770 
	C791.317322,726.649292 781.802063,724.625305 777.200745,719.771484 
M770.829102,712.610474 
	C771.039673,715.120117 771.250183,717.629700 771.488281,720.467346 
	C776.496765,718.095093 777.865906,712.401978 776.207886,704.091919 
	C771.868591,704.905029 771.396240,705.576843 770.829102,712.610474 
z"/>
<path fill="#19204B" opacity="1.000000" stroke="none" 
	d="
M897.700256,680.076172 
	C902.504150,682.991089 903.902710,687.345581 904.020447,692.188599 
	C904.194519,699.346436 903.980530,706.516663 904.286499,713.666382 
	C904.365051,715.500793 905.773010,717.278381 906.570190,719.082092 
	C907.637451,717.377991 908.866211,715.749695 909.714600,713.942749 
	C910.269104,712.761780 910.272034,711.321777 910.730530,708.893616 
	C912.649414,714.937317 910.989929,720.719788 907.380615,723.172119 
	C902.244812,726.661255 892.514648,725.097046 886.753052,719.855896 
	C881.812988,725.241516 874.000122,726.532288 867.367188,723.172302 
	C862.811096,720.864441 861.833191,716.893921 861.953918,712.296509 
	C862.073303,707.750488 864.341187,704.394714 868.556091,703.337585 
	C873.996094,701.973206 879.659058,701.497803 885.537048,700.591553 
	C885.537048,695.359131 885.779846,689.625061 885.368469,683.938293 
	C885.263916,682.492737 883.286987,680.796509 881.760864,680.008911 
	C881.039124,679.636414 878.301819,681.155701 878.314087,681.781921 
	C878.342041,683.207703 879.292114,684.778564 880.247070,685.991638 
	C882.784058,689.214294 880.580811,695.790833 876.184509,696.997864 
	C872.210449,698.088928 868.124634,698.248230 865.444153,694.228882 
	C863.216492,690.888489 864.037842,685.091248 867.232971,682.275391 
	C868.801758,680.892761 870.814941,679.665833 872.821838,679.190063 
	C881.023926,677.246155 889.261597,676.828918 897.700256,680.076172 
M880.247009,716.066162 
	C880.689636,717.502014 881.132263,718.937866 881.838074,721.227356 
	C887.887329,715.707458 885.598999,709.633606 885.521362,703.681030 
	C883.684082,704.470215 881.745361,705.463440 881.282898,706.924133 
	C880.455322,709.537842 880.517029,712.433105 880.247009,716.066162 
z"/>
<path fill="#1A214B" opacity="1.000000" stroke="none" 
	d="
M450.573303,718.398193 
	C443.445190,709.149902 443.412781,699.332336 447.549072,689.440857 
	C448.810211,686.425049 451.446838,683.350891 454.272339,681.737915 
	C464.009613,676.179138 474.200439,676.416931 484.331512,681.060730 
	C484.629395,681.197205 484.902771,681.400940 485.162262,681.605408 
	C494.042664,688.600464 493.976166,698.198975 492.353149,707.929260 
	C490.752869,717.523560 485.714111,722.385681 476.574097,724.096375 
	C467.270752,725.837646 458.355621,725.470642 450.573303,718.398193 
M473.236389,683.686279 
	C471.670624,682.510559 469.250092,680.032654 468.695282,680.396912 
	C466.837921,681.616028 464.473602,683.803528 464.396606,685.704956 
	C463.975037,696.118591 464.018768,706.561279 464.268524,716.985168 
	C464.337250,719.852722 466.086151,723.097473 469.468628,722.231567 
	C471.321350,721.757202 473.714569,718.655884 473.768372,716.682007 
	C474.060974,705.948425 473.700928,695.197021 473.236389,683.686279 
z"/>
<path fill="#161D49" opacity="1.000000" stroke="none" 
	d="
M732.038025,723.998901 
	C728.365173,723.998901 725.184143,723.998901 722.003052,723.998901 
	C721.956238,723.495422 721.909424,722.991882 721.862610,722.488403 
	C723.292053,722.152527 724.721497,721.816589 726.535828,721.390259 
	C726.535828,699.650940 726.535828,677.780518 726.535828,655.558228 
	C724.911011,655.222778 723.129700,654.854919 721.348450,654.487122 
	C721.367004,654.160217 721.385498,653.833252 721.404053,653.506348 
	C728.990967,653.506348 736.577942,653.506348 744.744629,653.506348 
	C744.744629,675.825989 744.744629,698.511414 744.744629,721.241272 
	C746.858032,721.740112 748.442017,722.114014 750.026062,722.487915 
	C749.995361,722.991577 749.964661,723.495239 749.934021,723.998901 
	C744.132568,723.998901 738.331177,723.998901 732.038025,723.998901 
z"/>
<path fill="#161D49" opacity="1.000000" stroke="none" 
	d="
M328.428528,723.724365 
	C328.001312,723.518005 328.027618,723.162964 328.020691,723.077271 
	C329.419861,722.407288 330.825958,721.823059 332.593567,721.088623 
	C332.593567,699.484436 332.593567,677.614136 332.593567,655.583984 
	C330.803192,655.204102 329.054352,654.833008 327.305511,654.461914 
	C327.347931,654.110474 327.390320,653.759033 327.432739,653.407593 
	C335.054626,653.407593 342.676483,653.407593 350.717834,653.407593 
	C350.717834,675.845581 350.717834,698.400574 350.717834,721.173218 
	C352.703278,721.633545 354.347656,722.014832 355.992004,722.396118 
	C355.987366,722.907654 355.982727,723.419128 355.978088,723.930664 
	C346.937317,723.930664 337.896515,723.930664 328.428528,723.724365 
z"/>
<path fill="#151C48" opacity="1.000000" stroke="none" 
	d="
M697.004150,711.950806 
	C697.004150,692.865601 697.004150,674.272156 697.004150,655.574097 
	C695.061157,655.170532 693.451111,654.836121 691.841064,654.501709 
	C691.862000,654.168579 691.882935,653.835388 691.903870,653.502197 
	C699.349670,653.502197 706.795410,653.502197 714.829712,653.502197 
	C714.829712,675.756287 714.829712,698.430969 714.829712,721.154907 
	C716.965210,721.682251 718.563660,722.076904 720.162170,722.471619 
	C720.126587,722.798157 720.091064,723.124695 720.055481,723.451233 
	C710.759277,723.451233 701.463013,723.451233 692.166748,723.451233 
	C692.095581,723.155518 692.024353,722.859802 691.953125,722.564087 
	C693.492920,722.160767 695.032776,721.757507 697.004150,721.241211 
	C697.004150,718.362732 697.004150,715.402588 697.004150,711.950806 
z"/>
<path fill="#1A214B" opacity="1.000000" stroke="none" 
	d="
M401.678864,678.724976 
	C403.515137,678.838745 404.903381,678.952515 406.291656,679.066223 
	C399.546661,680.497070 400.032898,686.552551 398.460632,690.858276 
	C393.159698,705.375061 388.399567,720.090637 383.017609,734.575989 
	C379.007996,745.367859 372.642151,749.071167 363.303741,746.998779 
	C357.130554,745.628845 353.994202,740.299133 355.981049,734.555115 
	C357.254669,730.872925 361.252197,729.059998 365.950867,730.084595 
	C369.849670,730.934631 371.640045,733.419067 371.032806,737.334412 
	C370.875427,738.349121 369.859772,739.258118 369.158112,740.152832 
	C368.551208,740.926697 367.830566,741.611328 367.160156,742.335388 
	C368.166870,742.997009 369.544067,744.449158 370.115265,744.181458 
	C372.418182,743.102173 375.266144,741.969238 376.460205,739.982849 
	C379.326050,735.215637 381.372375,729.955688 384.471191,723.357788 
	C375.497589,726.331055 374.325287,720.921570 372.516663,715.783752 
	C369.040192,705.908264 365.352295,696.101868 361.486481,686.372375 
	C360.503387,683.898193 358.522644,681.820374 356.858612,679.350098 
	C365.095917,679.350098 374.156647,679.350098 383.217377,679.350098 
	C383.266876,679.666138 383.316376,679.982178 383.365875,680.298218 
	C381.942230,680.696533 380.518555,681.094849 378.837646,681.565186 
	C381.916290,690.898560 384.976562,700.176270 388.415131,710.600952 
	C392.065155,700.135254 395.313171,690.822083 398.601929,681.392212 
	C396.361145,681.044434 394.671265,680.782166 392.981415,680.519958 
	C392.980865,679.921570 392.980347,679.323242 392.979828,678.724854 
	C395.730164,678.724854 398.480499,678.724854 401.678864,678.724976 
z"/>
<path fill="#1C234D" opacity="1.000000" stroke="none" 
	d="
M410.028198,681.990723 
	C416.218201,676.994812 422.864075,676.851379 429.643585,679.083740 
	C432.811401,680.126892 435.617218,681.355408 438.453430,676.325562 
	C438.453430,682.560730 438.453430,687.251648 438.453430,691.942627 
	C438.129181,692.089478 437.804962,692.236328 437.480713,692.383118 
	C436.569489,690.776428 435.713562,689.135254 434.737091,687.569214 
	C431.197418,681.892578 425.939575,679.238831 420.007477,680.817566 
	C417.915283,681.374451 416.241058,683.501831 414.375977,684.912170 
	C415.896851,686.616699 417.103302,688.994019 419.005341,689.882812 
	C422.727173,691.622009 426.898499,692.366638 430.773834,693.816711 
	C439.032440,696.907166 442.516327,702.505066 441.539459,710.683838 
	C440.532104,719.117737 436.151947,723.734863 427.321869,724.631958 
	C423.619110,725.008179 419.529755,724.756897 416.071686,723.518677 
	C412.191467,722.129150 409.006409,720.997131 405.647614,726.075867 
	C405.647614,719.170044 405.647614,713.578186 405.647614,707.986389 
	C405.972290,707.876404 406.296997,707.766357 406.621674,707.656372 
	C407.426575,709.297852 408.225525,710.942200 409.037354,712.580261 
	C412.821808,720.215637 419.091888,723.738586 426.895233,721.757385 
	C429.150787,721.184814 430.858765,718.455566 432.817810,716.714966 
	C431.202545,715.060547 429.868469,712.816711 427.909729,711.881897 
	C424.496521,710.252991 420.662292,709.531982 417.067963,708.252197 
	C404.547485,703.794617 401.457733,692.728455 410.028198,681.990723 
z"/>
<path fill="#D4C4C0" opacity="1.000000" stroke="none" 
	d="
M260.277161,685.683411 
	C261.750641,690.134094 263.090332,694.214294 264.595673,698.798950 
	C259.186401,698.798950 254.330475,698.798950 248.923294,698.798950 
	C251.495239,691.591736 254.008865,684.548035 257.052795,676.018188 
	C258.417206,680.121521 259.280304,682.717224 260.277161,685.683411 
z"/>
<path fill="#D4C4C0" opacity="1.000000" stroke="none" 
	d="
M665.802124,706.376953 
	C665.506287,711.620605 666.675781,716.920898 661.107849,721.246826 
	C659.451599,715.546448 659.081787,710.907532 661.025085,706.392944 
	C662.344421,703.327820 664.075684,703.312317 665.802124,706.376953 
z"/>
<path fill="#D4C4C0" opacity="1.000000" stroke="none" 
	d="
M770.836914,712.165161 
	C771.396240,705.576843 771.868591,704.905029 776.207886,704.091919 
	C777.865906,712.401978 776.496765,718.095093 771.488281,720.467346 
	C771.250183,717.629700 771.039673,715.120117 770.836914,712.165161 
z"/>
<path fill="#D4C4C0" opacity="1.000000" stroke="none" 
	d="
M880.226990,715.638428 
	C880.517029,712.433105 880.455322,709.537842 881.282898,706.924133 
	C881.745361,705.463440 883.684082,704.470215 885.521362,703.681030 
	C885.598999,709.633606 887.887329,715.707458 881.838074,721.227356 
	C881.132263,718.937866 880.689636,717.502014 880.226990,715.638428 
z"/>
<path fill="#DAC9C3" opacity="1.000000" stroke="none" 
	d="
M473.400940,684.069031 
	C473.700928,695.197021 474.060974,705.948425 473.768372,716.682007 
	C473.714569,718.655884 471.321350,721.757202 469.468628,722.231567 
	C466.086151,723.097473 464.337250,719.852722 464.268524,716.985168 
	C464.018768,706.561279 463.975037,696.118591 464.396606,685.704956 
	C464.473602,683.803528 466.837921,681.616028 468.695282,680.396912 
	C469.250092,680.032654 471.670624,682.510559 473.400940,684.069031 
z"/>
</svg>