<?xml version="1.0" encoding="UTF-8"?>
<!DOCTYPE svg PUBLIC "-//W3C//DTD SVG 1.1//EN" "http://www.w3.org/Graphics/SVG/1.1/DTD/svg11.dtd">
<svg xmlns="http://www.w3.org/2000/svg" version="1.1" width="1920px" height="1080px" style="shape-rendering:geometricPrecision; text-rendering:geometricPrecision; image-rendering:optimizeQuality; fill-rule:evenodd; clip-rule:evenodd" xmlns:xlink="http://www.w3.org/1999/xlink">
<g><path style="opacity:1" fill="#eed8d4" d="M -0.5,-0.5 C 639.5,-0.5 1279.5,-0.5 1919.5,-0.5C 1919.5,359.5 1919.5,719.5 1919.5,1079.5C 1279.5,1079.5 639.5,1079.5 -0.5,1079.5C -0.5,719.5 -0.5,359.5 -0.5,-0.5 Z"/></g>
<g><path style="opacity:1" fill="#a17a69" d="M 904.5,84.5 C 918.291,83.4604 927.457,89.4604 932,102.5C 934.968,113.391 935.301,124.391 933,135.5C 930.925,151.129 927.592,166.463 923,181.5C 922.186,183.902 922.353,186.235 923.5,188.5C 948.656,159.844 975.656,133.011 1004.5,108C 1008.99,107.215 1011.66,109.048 1012.5,113.5C 979.455,177.344 958.955,245.011 951,316.5C 949.358,331.133 948.691,345.8 949,360.5C 949.414,360.957 949.914,361.291 950.5,361.5C 968.063,328.042 985.896,294.709 1004,261.5C 1011.17,253 1018.33,244.5 1025.5,236C 1029.89,232.658 1034.72,231.825 1040,233.5C 1041.22,233.138 1042.39,232.638 1043.5,232C 1048,226.167 1052.5,220.333 1057,214.5C 1064.92,205.469 1068.59,206.802 1068,218.5C 1051.65,244.536 1042.15,272.87 1039.5,303.5C 1039.67,307.167 1039.83,310.833 1040,314.5C 1041.09,315.293 1042.25,315.96 1043.5,316.5C 1051.74,310.762 1059.24,304.095 1066,296.5C 1076.91,283.014 1087.57,269.348 1098,255.5C 1102.16,203.717 1119.33,156.884 1149.5,115C 1155.99,111.964 1159.32,114.131 1159.5,121.5C 1151.41,153.263 1140.24,183.93 1126,213.5C 1119.94,226.623 1113.61,239.623 1107,252.5C 1105.46,257.448 1104.13,262.448 1103,267.5C 1101.22,298.698 1102.89,329.698 1108,360.5C 1109.46,365.894 1111.13,371.228 1113,376.5C 1114.29,378.792 1115.96,380.792 1118,382.5C 1119.39,386.202 1118.23,388.202 1114.5,388.5C 1112.63,388.61 1111.13,387.944 1110,386.5C 1106.41,378.819 1103.75,370.819 1102,362.5C 1099.53,349.941 1097.86,337.274 1097,324.5C 1096.83,306.158 1096.33,287.824 1095.5,269.5C 1083.88,286.301 1070.55,301.801 1055.5,316C 1051.88,318.641 1047.88,320.474 1043.5,321.5C 1039.23,320.4 1036.4,317.734 1035,313.5C 1032.95,301.704 1033.62,290.038 1037,278.5C 1039.87,268.49 1042.87,258.49 1046,248.5C 1048.18,242.639 1051.01,237.139 1054.5,232C 1052.1,231.37 1050.26,232.203 1049,234.5C 1039.6,248.566 1029.44,262.066 1018.5,275C 1013.54,277.607 1009.71,276.44 1007,271.5C 988.631,304.236 971.298,337.569 955,371.5C 951.075,375.41 947.075,375.41 943,371.5C 941.165,353.863 941.165,336.196 943,318.5C 949.998,250.013 968.831,185.013 999.5,123.5C 998.448,123.351 997.448,123.517 996.5,124C 978.028,141.471 959.862,159.305 942,177.5C 930.117,190.716 919.784,205.05 911,220.5C 898.637,262.641 882.637,303.307 863,342.5C 857.251,352.334 851.251,362.001 845,371.5C 841.769,376.534 837.269,378.368 831.5,377C 829.667,376.5 828.5,375.333 828,373.5C 827.456,361.115 829.456,349.115 834,337.5C 851.397,294.84 873.73,255.174 901,218.5C 915.433,188.444 924.433,156.777 928,123.5C 930.947,89.7648 917.781,81.2648 888.5,98C 874.749,107.083 862.916,118.249 853,131.5C 837.007,152.2 825.341,175.2 818,200.5C 815.361,209.118 815.028,217.785 817,226.5C 821.452,227.141 825.952,227.808 830.5,228.5C 830.291,229.086 829.957,229.586 829.5,230C 818.994,234.574 812.494,231.407 810,220.5C 809.159,208.039 811.159,196.039 816,184.5C 829.066,149.114 850.233,119.614 879.5,96C 887.345,90.895 895.678,87.0616 904.5,84.5 Z"/></g>
<g><path style="opacity:1" fill="#a17b69" d="M 1334.5,104.5 C 1337.32,104.081 1339.49,105.081 1341,107.5C 1341.85,113.339 1341.18,119.005 1339,124.5C 1313.59,171.66 1287.92,218.66 1262,265.5C 1255.24,289.742 1252.74,314.409 1254.5,339.5C 1257.31,328.255 1260.14,316.921 1263,305.5C 1268.52,285.935 1276.19,267.269 1286,249.5C 1288.35,245.821 1291.35,242.821 1295,240.5C 1298.32,241.657 1299.82,243.991 1299.5,247.5C 1297.38,259.947 1295.71,272.447 1294.5,285C 1294.67,287.833 1294.83,290.667 1295,293.5C 1295.56,294.022 1296.23,294.355 1297,294.5C 1307.45,289.02 1316.95,282.187 1325.5,274C 1333.07,265.763 1341.23,258.263 1350,251.5C 1354.12,243.717 1359.95,237.55 1367.5,233C 1371.21,232.595 1374.88,232.595 1378.5,233C 1385.54,225.629 1392.21,217.962 1398.5,210C 1400.9,207.855 1403.06,208.022 1405,210.5C 1405.67,212.833 1405.67,215.167 1405,217.5C 1392.38,239.073 1383.38,262.073 1378,286.5C 1376.52,295.787 1376.18,305.121 1377,314.5C 1378.09,315.293 1379.25,315.96 1380.5,316.5C 1388.41,311.096 1395.58,304.763 1402,297.5C 1413.29,282.545 1424.95,267.879 1437,253.5C 1439.58,242.848 1443.41,232.681 1448.5,223C 1450.92,222.014 1452.59,222.681 1453.5,225C 1442.41,250.025 1437.08,276.192 1437.5,303.5C 1442.71,285.994 1448.55,268.66 1455,251.5C 1458.24,242.524 1462.41,234.024 1467.5,226C 1471.58,225.077 1473.58,226.744 1473.5,231C 1470.13,249.368 1468.96,267.868 1470,286.5C 1470.33,289.506 1471.17,292.34 1472.5,295C 1473.83,295.667 1475.17,295.667 1476.5,295C 1484.63,289.206 1491.79,282.373 1498,274.5C 1503.71,266.91 1509.55,259.41 1515.5,252C 1517.6,251.749 1518.94,252.749 1519.5,255C 1509.38,272.452 1496.38,287.452 1480.5,300C 1472.38,302.852 1467.21,300.019 1465,291.5C 1463.53,278.808 1463.03,266.141 1463.5,253.5C 1458.76,260.549 1455.26,268.216 1453,276.5C 1448.67,293.162 1444.33,309.828 1440,326.5C 1434.63,329.483 1431.3,327.817 1430,321.5C 1429.33,311.167 1429.33,300.833 1430,290.5C 1431.15,282.793 1432.15,275.126 1433,267.5C 1421.34,284.501 1408.17,300.334 1393.5,315C 1389.82,318.088 1385.66,320.255 1381,321.5C 1376.46,320.626 1373.46,317.96 1372,313.5C 1370.05,304.505 1370.05,295.505 1372,286.5C 1374.71,274.312 1378.05,262.312 1382,250.5C 1384.03,243.713 1387.2,237.547 1391.5,232C 1389.1,231.37 1387.26,232.203 1386,234.5C 1376.94,248.232 1367.1,261.398 1356.5,274C 1347.8,278.385 1343.64,275.551 1344,265.5C 1335.83,273 1327.67,280.5 1319.5,288C 1313.43,292.395 1307.1,296.395 1300.5,300C 1293.72,301.24 1289.55,298.407 1288,291.5C 1288.55,280.808 1289.72,270.142 1291.5,259.5C 1290.64,257.128 1289.47,257.128 1288,259.5C 1269.87,295.334 1259.87,333.334 1258,373.5C 1256.27,374.576 1254.44,374.743 1252.5,374C 1250.45,369.426 1249.28,364.592 1249,359.5C 1246.28,342.204 1245.95,324.871 1248,307.5C 1249.58,294.017 1251.58,280.683 1254,267.5C 1242.52,285.238 1229.02,301.404 1213.5,316C 1209.88,318.641 1205.88,320.474 1201.5,321.5C 1197.23,320.4 1194.4,317.734 1193,313.5C 1191.56,306.89 1191.23,300.224 1192,293.5C 1195.19,277.195 1199.53,261.195 1205,245.5C 1207.12,240.758 1209.62,236.258 1212.5,232C 1210.1,231.37 1208.26,232.203 1207,234.5C 1197.6,248.566 1187.44,262.066 1176.5,275C 1171.65,277.701 1168.15,276.534 1166,271.5C 1166.71,254.769 1174.21,241.935 1188.5,233C 1192.83,232.667 1197.17,232.333 1201.5,232C 1207.17,225 1212.83,218 1218.5,211C 1220.95,208.16 1223.45,207.994 1226,210.5C 1226.67,213.167 1226.67,215.833 1226,218.5C 1212.2,241.438 1202.87,266.105 1198,292.5C 1197.33,299.833 1197.33,307.167 1198,314.5C 1199.09,315.293 1200.25,315.96 1201.5,316.5C 1209.74,310.762 1217.24,304.095 1224,296.5C 1235,282.5 1246,268.5 1257,254.5C 1267.1,217.634 1281.1,182.3 1299,148.5C 1305.26,137.648 1312.26,127.314 1320,117.5C 1324.43,112.56 1329.27,108.227 1334.5,104.5 Z"/></g>
<g><path style="opacity:1" fill="#a17b69" d="M 329.5,113.5 C 334.776,113.298 337.443,115.965 337.5,121.5C 332.366,142.736 325.532,163.403 317,183.5C 307.154,206.86 296.487,229.86 285,252.5C 282.728,257.59 281.394,262.923 281,268.5C 278.964,301.118 280.964,333.451 287,365.5C 288.168,372.17 291.168,377.837 296,382.5C 297.393,386.202 296.226,388.202 292.5,388.5C 290.626,388.61 289.126,387.944 288,386.5C 283.611,377.282 280.611,367.615 279,357.5C 277.339,348.214 276.006,338.881 275,329.5C 274.667,309.5 274.333,289.5 274,269.5C 272.748,266.986 272.248,264.32 272.5,261.5C 247.298,261.271 222.131,261.271 197,261.5C 190.034,301.78 189.7,342.113 196,382.5C 197.975,392.426 201.142,401.926 205.5,411C 202.044,412.123 199.21,411.29 197,408.5C 190.571,393.526 186.905,377.859 186,361.5C 183.274,329.189 184.44,297.023 189.5,265C 189.456,263.236 189.122,261.569 188.5,260C 180.797,259.358 173.131,259.691 165.5,261C 165,261.5 164.5,262 164,262.5C 151.938,298.02 140.271,333.687 129,369.5C 127.685,373.312 125.518,376.479 122.5,379C 118.316,380.165 115.483,378.665 114,374.5C 113.494,367.37 114.661,360.537 117.5,354C 119.112,353.28 120.612,353.446 122,354.5C 122.081,358.032 121.581,361.532 120.5,365C 120.68,367.241 121.513,367.741 123,366.5C 133.941,332.512 144.774,298.512 155.5,264.5C 139.302,266.287 125.469,272.953 114,284.5C 111.946,287.274 110.446,290.274 109.5,293.5C 109.39,295.374 110.056,296.874 111.5,298C 113.813,298.662 116.146,299.162 118.5,299.5C 118.5,300.5 118.5,301.5 118.5,302.5C 107.017,303.178 102.517,297.845 105,286.5C 117.596,269.606 134.429,259.44 155.5,256C 157.624,254.878 159.457,253.378 161,251.5C 171.769,219.964 185.769,189.964 203,161.5C 207.448,154.718 212.281,148.218 217.5,142C 223.765,141.972 225.932,145.139 224,151.5C 216.288,179.058 208.955,206.725 202,234.5C 200.041,240.368 199.375,246.368 200,252.5C 222.39,254.835 244.89,255.669 267.5,255C 270.232,254.587 272.899,253.92 275.5,253C 279.532,226.702 285.699,200.869 294,175.5C 302.548,152.712 314.381,132.046 329.5,113.5 Z"/></g>
<g><path style="opacity:1" fill="#a17a69" d="M 364.5,113.5 C 369.776,113.298 372.443,115.965 372.5,121.5C 367.57,143.123 360.737,164.123 352,184.5C 341.774,208.506 330.774,232.173 319,255.5C 317.683,260.1 316.683,264.766 316,269.5C 315.151,292.543 315.818,315.543 318,338.5C 319.138,349.327 321.138,359.994 324,370.5C 325.876,375.754 328.376,380.588 331.5,385C 331.588,387.744 330.255,388.91 327.5,388.5C 326.5,388.333 325.5,388.167 324.5,388C 320.502,381.349 317.669,374.182 316,366.5C 313.091,351.62 311.091,336.62 310,321.5C 309.566,301.147 309.232,280.814 309,260.5C 310.583,258.089 311.583,255.422 312,252.5C 315.445,214.831 325.779,179.164 343,145.5C 349.433,134.287 356.6,123.621 364.5,113.5 Z"/></g>
<g><path style="opacity:1" fill="#a17b69" d="M 1186.5,113.5 C 1190.18,112.725 1192.68,114.059 1194,117.5C 1193.71,125.613 1192.38,133.613 1190,141.5C 1176.75,179.994 1160.75,217.327 1142,253.5C 1140.59,257.057 1139.59,260.724 1139,264.5C 1135.93,299.132 1137.93,333.465 1145,367.5C 1146.13,373.105 1148.8,377.772 1153,381.5C 1154.67,388.167 1152.33,390.167 1146,387.5C 1140.31,375.096 1136.64,362.096 1135,348.5C 1133.93,340.51 1132.93,332.51 1132,324.5C 1131.8,304.483 1131.3,284.483 1130.5,264.5C 1131.66,260.844 1132.83,257.177 1134,253.5C 1137.72,210.598 1150.39,170.598 1172,133.5C 1176.6,126.627 1181.43,119.96 1186.5,113.5 Z"/></g>
<g><path style="opacity:1" fill="#ecd5d1" d="M 1332.5,113.5 C 1334.25,113.418 1335.25,114.251 1335.5,116C 1315.48,155.869 1294.32,195.035 1272,233.5C 1282.36,188.452 1302.52,148.452 1332.5,113.5 Z"/></g>
<g><path style="opacity:1" fill="#ecd6d2" d="M 328.5,123.5 C 329.649,123.791 330.316,124.624 330.5,126C 319.79,162.965 305.456,198.465 287.5,232.5C 291.345,192.476 305.012,156.143 328.5,123.5 Z"/></g>
<g><path style="opacity:1" fill="#ecd6d1" d="M 363.5,123.5 C 364.5,123.5 365.5,123.5 366.5,123.5C 355.902,161.368 341.402,197.701 323,232.5C 322.009,231.57 321.509,230.404 321.5,229C 327.605,190.486 341.605,155.319 363.5,123.5 Z"/></g>
<g><path style="opacity:1" fill="#ecd6d1" d="M 1150.5,123.5 C 1151.5,123.5 1152.5,123.5 1153.5,123.5C 1142.44,161.282 1127.78,197.616 1109.5,232.5C 1113.5,192.511 1127.16,156.178 1150.5,123.5 Z"/></g>
<g><path style="opacity:1" fill="#ecd6d1" d="M 1185.5,123.5 C 1186.5,123.5 1187.5,123.5 1188.5,123.5C 1177.89,161.388 1163.39,197.721 1145,232.5C 1148.87,192.739 1162.37,156.405 1185.5,123.5 Z"/></g>
<g><path style="opacity:1" fill="#edd6d2" d="M 215.5,154.5 C 216.622,156.288 216.789,158.288 216,160.5C 206.605,189.742 198.605,219.409 192,249.5C 191.5,250.667 190.667,251.5 189.5,252C 182.488,252.434 175.488,252.934 168.5,253.5C 168.876,248.329 170.042,243.329 172,238.5C 181.636,214.892 192.636,191.892 205,169.5C 208.006,164.02 211.506,159.02 215.5,154.5 Z"/></g>
<g><path style="opacity:1" fill="#a17b69" d="M 525.5,207.5 C 528.571,206.925 530.571,208.091 531.5,211C 512.163,223.671 496.996,240.171 486,260.5C 485.257,262.441 485.424,264.274 486.5,266C 497.63,267.28 508.63,269.28 519.5,272C 521.167,273 522.833,274 524.5,275C 529.103,279.263 533.27,283.763 537,288.5C 546.242,280.455 555.409,272.288 564.5,264C 573.612,257.458 582.278,250.458 590.5,243C 593.863,242.374 597.196,242.041 600.5,242C 603.711,246.502 605.711,251.502 606.5,257C 617.208,257.756 627.541,256.089 637.5,252C 640.373,245.705 642.873,239.205 645,232.5C 646.447,228.581 648.614,225.248 651.5,222.5C 653.5,222.5 654.5,223.5 654.5,225.5C 643.647,250.435 638.313,276.435 638.5,303.5C 645.288,282.305 652.788,261.305 661,240.5C 663.246,235.674 665.746,231.008 668.5,226.5C 673.923,224.63 675.923,226.63 674.5,232.5C 671.773,250.416 670.606,268.416 671,286.5C 671.578,289.903 672.745,293.07 674.5,296C 677.098,295.874 679.431,294.874 681.5,293C 694.666,280.51 706.332,266.843 716.5,252C 717.784,251.316 718.951,251.483 720,252.5C 720.667,254.167 720.667,255.833 720,257.5C 710.669,271.506 699.836,284.339 687.5,296C 676.88,304.985 669.714,302.818 666,289.5C 665.026,284.047 664.526,278.547 664.5,273C 667.601,247.853 664.767,247.353 656,271.5C 650.723,288.998 646.057,306.665 642,324.5C 638.325,329.93 634.992,329.596 632,323.5C 630.014,301.95 631.514,280.617 636.5,259.5C 625.969,261.738 615.302,262.905 604.5,263C 599.453,276.118 593.62,288.951 587,301.5C 584.607,306.727 580.774,310.394 575.5,312.5C 570.02,310.852 566.853,307.185 566,301.5C 565.215,289.76 567.381,278.593 572.5,268C 571.833,267.333 571.167,267.333 570.5,268C 560.702,276.129 551.202,284.629 542,293.5C 540.092,296.215 538.759,299.215 538,302.5C 535.903,319.402 527.403,331.735 512.5,339.5C 510.088,339.594 508.255,338.594 507,336.5C 506.333,333.833 506.333,331.167 507,328.5C 514.609,316.559 522.609,304.892 531,293.5C 531.182,285.988 527.682,280.822 520.5,278C 510.081,274.864 499.414,273.197 488.5,273C 484.388,271.221 481.222,268.388 479,264.5C 465.834,276.99 454.168,290.657 444,305.5C 440.762,345.212 429.095,382.212 409,416.5C 405.799,420.036 402.299,423.203 398.5,426C 388.553,428.551 383.886,424.718 384.5,414.5C 384.908,404.772 387.075,395.439 391,386.5C 403.078,357.67 417.745,330.337 435,304.5C 435.964,283.549 433.964,262.882 429,242.5C 426.984,236.297 423.817,230.797 419.5,226C 415.075,223.817 411.075,224.484 407.5,228C 391.797,244.701 376.463,261.701 361.5,279C 359.167,280.667 356.833,282.333 354.5,284C 343.833,284.978 340,280.144 343,269.5C 346.084,256.498 351.917,244.998 360.5,235C 362.695,234.288 364.362,234.955 365.5,237C 356.474,247.891 350.808,260.391 348.5,274.5C 348.342,276.319 349.009,277.652 350.5,278.5C 354.106,276.397 357.273,273.731 360,270.5C 373.129,255.036 386.629,239.869 400.5,225C 412.151,216.703 421.651,218.87 429,231.5C 433.124,239.081 436.124,247.081 438,255.5C 440.342,267.764 442.175,280.098 443.5,292.5C 456.135,278.531 469.135,264.864 482.5,251.5C 493.503,233.498 507.836,218.831 525.5,207.5 Z"/></g>
<g><path style="opacity:1" fill="#ebd4cf" d="M 1033.5,238.5 C 1034.5,238.5 1035.5,238.5 1036.5,238.5C 1035.38,242.474 1033.55,246.14 1031,249.5C 1026.37,255.967 1021.2,261.967 1015.5,267.5C 1014.44,262.897 1015.28,258.564 1018,254.5C 1022.03,247.975 1027.19,242.642 1033.5,238.5 Z"/></g>
<g><path style="opacity:1" fill="#ead3cf" d="M 1191.5,238.5 C 1192.5,238.5 1193.5,238.5 1194.5,238.5C 1192.72,244.051 1189.89,249.051 1186,253.5C 1182.17,258 1178.33,262.5 1174.5,267C 1173.55,267.483 1172.55,267.649 1171.5,267.5C 1174.27,255.076 1180.94,245.409 1191.5,238.5 Z"/></g>
<g><path style="opacity:1" fill="#ebd4cf" d="M 1370.5,238.5 C 1371.5,238.5 1372.5,238.5 1373.5,238.5C 1368.22,248.858 1361.56,258.358 1353.5,267C 1352.55,267.483 1351.55,267.649 1350.5,267.5C 1352.97,254.878 1359.64,245.211 1370.5,238.5 Z"/></g>
<g><path style="opacity:1" fill="#edd6d2" d="M 893.5,240.5 C 894.497,240.47 895.164,240.97 895.5,242C 883.169,283.155 866.336,322.322 845,359.5C 842.5,362.667 840,365.833 837.5,369C 836.552,369.483 835.552,369.649 834.5,369.5C 834.721,361.277 836.221,353.277 839,345.5C 846.49,323.185 856.157,301.852 868,281.5C 876.329,267.683 884.829,254.017 893.5,240.5 Z"/></g>
<g><path style="opacity:1" fill="#e1c8c2" d="M 596.5,249.5 C 597.5,249.5 598.5,249.5 599.5,249.5C 599.762,250.978 599.429,252.311 598.5,253.5C 596.889,252.68 596.222,251.346 596.5,249.5 Z"/></g>
<g><path style="opacity:1" fill="#edd6d2" d="M 589.5,251.5 C 594.635,253.454 597.135,257.12 597,262.5C 592.867,275.579 587.2,287.912 580,299.5C 578.281,301.557 576.281,303.224 574,304.5C 573.228,304.355 572.561,304.022 572,303.5C 571.288,283.933 577.121,266.6 589.5,251.5 Z"/></g>
<g><path style="opacity:1" fill="#e7cfca" d="M 526.5,311.5 C 527.376,311.369 528.043,311.702 528.5,312.5C 525.973,318.191 522.473,323.191 518,327.5C 516.77,326.725 516.437,325.725 517,324.5C 520.176,320.137 523.343,315.804 526.5,311.5 Z"/></g>
<g><path style="opacity:1" fill="#edd7d2" d="M 431.5,323.5 C 432.693,323.97 433.36,324.97 433.5,326.5C 429.269,356.36 419.769,384.36 405,410.5C 402.203,414.299 399.036,417.799 395.5,421C 394.5,421.667 393.5,421.667 392.5,421C 390.86,409.362 392.693,398.195 398,387.5C 407.365,365.099 418.532,343.766 431.5,323.5 Z"/></g>
<g><path style="opacity:1" fill="#f4e7e4" d="M 1376.5,767.5 C 1378.47,767.261 1380.3,767.594 1382,768.5C 1410.65,824.469 1439.32,880.469 1468,936.5C 1471.08,941.588 1474.92,946.088 1479.5,950C 1482.14,951.946 1485.14,952.946 1488.5,953C 1489.34,954.011 1489.67,955.178 1489.5,956.5C 1464.83,955.236 1440.17,955.236 1415.5,956.5C 1415.33,955.178 1415.66,954.011 1416.5,953C 1420.62,952.857 1424.62,952.19 1428.5,951C 1430.44,949.278 1431.44,947.111 1431.5,944.5C 1424.19,925.552 1415.53,907.219 1405.5,889.5C 1380.5,888.167 1355.5,888.167 1330.5,889.5C 1326,899.833 1321.5,910.167 1317,920.5C 1313.35,941.868 1322.52,952.702 1344.5,953C 1345.34,954.011 1345.67,955.178 1345.5,956.5C 1320.83,955.286 1296.16,955.286 1271.5,956.5C 1271.33,955.178 1271.66,954.011 1272.5,953C 1285.28,952.195 1294.44,946.029 1300,934.5C 1326.06,879.05 1351.56,823.384 1376.5,767.5 Z"/></g>
<g><path style="opacity:1" fill="#f4e7e4" d="M 1496.5,769.5 C 1524.17,770.833 1551.83,770.833 1579.5,769.5C 1579.5,770.833 1579.5,772.167 1579.5,773.5C 1574.49,773.334 1569.49,773.501 1564.5,774C 1559.97,775.859 1556.81,779.026 1555,783.5C 1554.5,807.164 1554.33,830.831 1554.5,854.5C 1586.5,854.5 1618.5,854.5 1650.5,854.5C 1650.95,829.79 1650.45,805.123 1649,780.5C 1647.34,778.083 1645.17,776.25 1642.5,775C 1636.91,773.711 1631.24,773.211 1625.5,773.5C 1625.5,772.167 1625.5,770.833 1625.5,769.5C 1653.17,770.799 1680.83,770.799 1708.5,769.5C 1708.67,770.822 1708.34,771.989 1707.5,773C 1702.83,773.333 1698.17,773.667 1693.5,774C 1689.73,775.442 1686.89,777.942 1685,781.5C 1684.33,835.5 1684.33,889.5 1685,943.5C 1685.98,946.625 1687.81,949.125 1690.5,951C 1696.08,952.186 1701.75,952.852 1707.5,953C 1708.34,954.011 1708.67,955.178 1708.5,956.5C 1680.83,956.5 1653.17,956.5 1625.5,956.5C 1625.5,955.167 1625.5,953.833 1625.5,952.5C 1631.57,952.739 1637.57,952.239 1643.5,951C 1647.17,949.332 1649.33,946.499 1650,942.5C 1650.5,916.169 1650.67,889.835 1650.5,863.5C 1618.5,863.5 1586.5,863.5 1554.5,863.5C 1554.33,889.835 1554.5,916.169 1555,942.5C 1555.67,946.499 1557.83,949.332 1561.5,951C 1567.44,952.222 1573.44,953.055 1579.5,953.5C 1579.5,954.5 1579.5,955.5 1579.5,956.5C 1551.83,956.5 1524.17,956.5 1496.5,956.5C 1496.5,955.167 1496.5,953.833 1496.5,952.5C 1503.06,953.081 1509.39,952.248 1515.5,950C 1517.05,948.786 1518.22,947.286 1519,945.5C 1520.15,917.714 1520.65,889.88 1520.5,862C 1520.33,835.5 1520.17,809 1520,782.5C 1519.12,779.898 1517.62,777.731 1515.5,776C 1509.7,774.014 1503.7,773.014 1497.5,773C 1496.66,771.989 1496.33,770.822 1496.5,769.5 Z"/></g>
<g><path style="opacity:1" fill="#efd9d5" d="M 1365.5,811.5 C 1377.52,833.703 1389.19,856.203 1400.5,879C 1378.83,879.833 1357.16,879.666 1335.5,878.5C 1345.79,856.263 1355.79,833.93 1365.5,811.5 Z"/></g>
</svg>
