<svg version="1.1" id="Layer_1" xmlns="http://www.w3.org/2000/svg" xmlns:xlink="http://www.w3.org/1999/xlink" x="0px" y="0px"
	 width="100%" viewBox="0 0 800 800" enable-background="new 0 0 800 800" xml:space="preserve">
<path fill="#0274B3" opacity="1.000000" stroke="none" 
	d="
M1.243891,743.303345 
	C1.000000,514.979126 1.000000,286.958221 1.000000,58.468658 
	C2.704123,55.960098 1.962107,53.522980 1.963799,51.269287 
	C1.977286,33.298435 11.500854,20.744196 24.970282,10.336189 
	C32.483078,4.530954 41.070740,1.999757 50.696537,1.243916 
	C284.020905,1.000000 517.041809,1.000000 750.531372,1.000000 
	C751.514954,1.426918 752.046143,1.833969 752.743774,1.890834 
	C775.832886,3.772716 789.386047,17.701418 798.057617,37.779385 
	C799.600708,41.352421 799.916138,45.146450 800.027283,48.993767 
	C800.108154,51.794250 799.495972,54.645226 800.756104,57.696583 
	C801.000000,286.020905 801.000000,514.041809 801.000000,742.531372 
	C799.790039,744.200317 799.938232,745.754944 800.019348,747.221924 
	C801.064514,766.128357 791.931213,779.702698 777.637573,790.804260 
	C769.607788,797.040833 760.625244,800.079773 750.304443,800.755859 
	C517.312439,801.000000 284.624878,801.000000 51.468658,801.000000 
	C50.244530,800.243530 49.297821,800.037537 48.270760,800.018311 
	C33.362736,799.739441 23.103317,790.937866 13.767148,780.800598 
	C4.901294,771.174072 1.077135,759.603516 1.981287,746.506714 
	C2.049282,745.521790 2.030069,744.508484 1.243891,743.303345 
z"/>
<path fill="#000000" opacity="1.000000" stroke="none" 
	d="
M750.468628,801.000000 
	C749.379822,799.147827 750.756714,799.216919 751.888062,799.017883 
	C773.483276,795.217712 787.972900,782.907654 796.068481,762.610413 
	C798.193604,757.282349 799.462463,752.010925 799.036255,746.300903 
	C798.943726,745.062256 798.600891,743.569092 800.575684,742.885864 
	C801.000000,761.259460 800.921631,779.519531 801.082947,797.777588 
	C801.107666,800.575928 800.481689,801.107666 797.747009,801.079163 
	C782.145203,800.916138 766.540833,801.000000 750.468628,801.000000 
z"/>
<path fill="#000000" opacity="1.000000" stroke="none" 
	d="
M1.000000,743.468628 
	C4.121947,742.710754 2.898893,745.146667 2.945763,746.429382 
	C3.707860,767.287903 14.049233,781.904724 31.606762,792.521484 
	C37.873417,796.310852 44.599308,797.968384 51.138313,800.598633 
	C35.397068,801.000000 19.792982,800.902954 4.192240,801.087830 
	C1.327356,801.121826 0.904984,800.386475 0.926125,797.717041 
	C1.068092,779.791443 1.000000,761.864075 1.000000,743.468628 
z"/>
<path fill="#000000" opacity="1.000000" stroke="none" 
	d="
M801.000000,57.531342 
	C797.876282,58.288200 799.119934,55.855850 799.051636,54.567047 
	C797.980408,34.356960 788.253235,19.967426 770.893982,9.655415 
	C764.402710,5.799392 757.534851,4.167400 750.862305,1.401904 
	C766.602356,1.000000 782.205811,1.096563 797.805969,0.912370 
	C800.666626,0.878595 801.096069,1.607437 801.074219,4.280914 
	C800.930359,21.873861 801.000000,39.468559 801.000000,57.531342 
z"/>
<path fill="#000000" opacity="1.000000" stroke="none" 
	d="
M50.531342,1.000000 
	C51.542385,2.365703 50.690559,2.758560 49.611523,2.932281 
	C25.134556,6.872974 11.290096,22.452684 3.576341,44.837467 
	C2.609965,47.641827 3.338876,50.429321 2.981015,53.196934 
	C2.760749,54.900414 3.815630,56.914566 1.424264,58.114159 
	C1.000000,40.073914 1.079653,22.147104 0.917032,4.222492 
	C0.891650,1.424882 1.517151,0.891214 4.252426,0.920750 
	C19.521015,1.085620 34.792313,1.000000 50.531342,1.000000 
z"/>
<path fill="#FEFEFF" opacity="1.000000" stroke="none" 
	d="
M349.000305,301.425934 
	C373.161865,301.426056 396.824615,301.548004 420.483917,301.319061 
	C424.991119,301.275482 426.047363,302.627014 425.964478,306.956665 
	C425.690247,321.281647 425.848785,335.615173 425.887909,349.945312 
	C425.890839,351.015411 425.319336,352.489624 426.729614,353.041229 
	C428.221527,353.624756 428.631012,352.200684 429.216248,351.236084 
	C448.683868,319.148132 477.670135,300.942810 514.075317,294.613037 
	C545.348389,289.175629 576.284851,291.892303 605.932922,303.491821 
	C636.670410,315.517548 656.212585,338.537292 667.381958,369.191925 
	C676.912231,395.347748 680.423767,422.595367 680.897583,450.132843 
	C682.193298,525.437439 681.200317,600.756470 681.523071,676.068787 
	C681.538757,679.715759 680.687073,680.873901 676.841492,680.857605 
	C640.516663,680.703552 604.190491,680.687012 567.866028,680.871216 
	C563.579895,680.892944 563.068481,679.265564 563.072327,675.650146 
	C563.142273,609.997864 563.179993,544.345337 563.031799,478.693298 
	C562.995972,462.832092 561.462036,447.088318 556.163086,431.956360 
	C548.416138,409.833740 532.884216,397.652435 509.478912,395.922333 
	C490.046906,394.485901 471.432526,396.852112 455.884979,410.038788 
	C442.754547,421.175323 437.211060,436.416412 433.862122,452.691956 
	C431.197327,465.642639 430.587769,478.787415 430.572937,491.947693 
	C430.504211,552.934387 430.480682,613.921448 430.659424,674.907654 
	C430.673828,679.818054 429.308899,680.907837 424.560150,680.879883 
	C389.069061,680.670654 353.575989,680.705811 318.084259,680.851501 
	C314.174622,680.867554 313.044098,679.867676 313.047546,675.868652 
	C313.154510,552.728760 313.151581,429.588776 313.059204,306.448853 
	C313.056305,302.611603 313.944458,301.219208 318.011292,301.332458 
	C328.167297,301.615326 338.336426,301.425842 349.000305,301.425934 
z"/>
<path fill="#FDFEFE" opacity="1.000000" stroke="none" 
	d="
M238.866425,619.000000 
	C238.866516,638.157837 238.757019,656.816895 238.954147,675.472656 
	C238.996307,679.462341 238.160156,680.891296 233.815536,680.869446 
	C198.000046,680.689026 162.182907,680.695618 126.367279,680.863953 
	C122.169418,680.883667 121.139633,679.702271 121.143303,675.581421 
	C121.252777,552.639587 121.260857,429.697632 121.121223,306.755859 
	C121.116013,302.168579 122.506859,301.311462 126.745605,301.330963 
	C162.228088,301.494263 197.712143,301.511749 233.194290,301.316803 
	C237.827301,301.291351 238.971390,302.590332 238.965729,307.147064 
	C238.836700,410.931274 238.866409,514.715637 238.866425,619.000000 
z"/>
<path fill="#FEFEFF" opacity="1.000000" stroke="none" 
	d="
M135.262741,232.746002 
	C113.935455,212.530899 106.692421,188.229645 115.317001,160.641144 
	C123.760704,133.631210 143.135483,117.647560 171.225113,113.415436 
	C209.125336,107.705193 243.964325,135.430389 248.584488,174.375366 
	C252.934433,211.042618 224.626114,245.650421 187.379272,249.251175 
	C167.784103,251.145493 150.542435,245.648270 135.262741,232.746002 
z"/>
</svg>