<svg version="1.1" id="Layer_1" xmlns="http://www.w3.org/2000/svg" xmlns:xlink="http://www.w3.org/1999/xlink" x="0px" y="0px"
	 width="100%" viewBox="0 0 153 126" enable-background="new 0 0 153 126" xml:space="preserve">
<path fill="#FDFEFF" opacity="1.000000" stroke="none" 
	d="
M154.000000,52.000000 
	C154.000000,77.311066 154.000000,102.122124 154.000000,126.966599 
	C103.068024,126.966599 52.136017,126.966599 1.102005,126.966599 
	C1.102005,85.105888 1.102005,43.211445 1.102005,1.158501 
	C51.999599,1.158501 102.999756,1.158501 154.000000,1.158501 
	C154.000000,17.863564 154.000000,34.681782 154.000000,52.000000 
M146.890396,5.760054 
	C143.355820,7.214027 139.602325,8.296869 136.343842,10.218895 
	C132.541962,12.461448 129.837082,11.848847 126.483307,9.191915 
	C116.136696,0.995138 104.623672,-0.447944 92.818985,5.504200 
	C81.210587,11.357373 75.577835,21.211658 75.803970,34.298988 
	C75.835014,36.095867 75.808243,37.893742 75.808243,40.438076 
	C50.038979,38.379864 29.127516,27.491840 12.024481,7.808104 
	C4.529427,24.100336 8.033616,37.345383 21.526194,49.670441 
	C17.770624,48.855518 15.496124,48.480667 13.290992,47.859547 
	C8.211864,46.428905 7.340653,47.242657 8.553384,52.524609 
	C11.059093,63.438026 17.746563,70.729591 27.987167,74.942421 
	C29.041416,75.376122 30.077505,75.853973 31.122021,76.311340 
	C31.044283,76.639870 30.966547,76.968407 30.888809,77.296936 
	C27.018190,77.296936 23.147572,77.296936 18.783195,77.296936 
	C24.021624,90.474266 33.471252,97.084358 47.536671,98.658035 
	C34.053379,108.654060 19.823606,112.643776 4.169309,112.371124 
	C24.171783,124.625015 45.650051,128.073151 68.110146,123.369522 
	C109.074982,114.790604 137.841248,78.892075 137.927368,36.958801 
	C137.933868,33.797585 138.864807,31.831190 141.331558,29.878660 
	C144.435211,27.422005 147.027573,24.319397 149.840546,21.495508 
	C149.474075,20.844667 149.107590,20.193827 148.741119,19.542986 
	C145.036301,20.040901 141.331482,20.538816 138.604172,20.905357 
	C141.633545,16.247513 144.909546,11.210430 148.616974,5.916499 
	C148.599365,5.684855 148.581757,5.453210 148.564148,5.221569 
	C148.238556,5.341267 147.912964,5.460965 146.890396,5.760054 
z"/>
<path fill="#1E9BF0" opacity="1.000000" stroke="none" 
	d="
M148.185562,6.173348 
	C144.909546,11.210430 141.633545,16.247513 138.604172,20.905357 
	C141.331482,20.538816 145.036301,20.040901 148.741119,19.542986 
	C149.107590,20.193827 149.474075,20.844667 149.840546,21.495508 
	C147.027573,24.319397 144.435211,27.422005 141.331558,29.878660 
	C138.864807,31.831190 137.933868,33.797585 137.927368,36.958801 
	C137.841248,78.892075 109.074982,114.790604 68.110146,123.369522 
	C45.650051,128.073151 24.171783,124.625015 4.169309,112.371124 
	C19.823606,112.643776 34.053379,108.654060 47.536671,98.658035 
	C33.471252,97.084358 24.021624,90.474266 18.783195,77.296936 
	C23.147572,77.296936 27.018190,77.296936 30.888809,77.296936 
	C30.966547,76.968407 31.044283,76.639870 31.122021,76.311340 
	C30.077505,75.853973 29.041416,75.376122 27.987167,74.942421 
	C17.746563,70.729591 11.059093,63.438026 8.553384,52.524609 
	C7.340653,47.242657 8.211864,46.428905 13.290992,47.859547 
	C15.496124,48.480667 17.770624,48.855518 21.526194,49.670441 
	C8.033616,37.345383 4.529427,24.100336 12.024481,7.808104 
	C29.127516,27.491840 50.038979,38.379864 75.808243,40.438076 
	C75.808243,37.893742 75.835014,36.095867 75.803970,34.298988 
	C75.577835,21.211658 81.210587,11.357373 92.818985,5.504200 
	C104.623672,-0.447944 116.136696,0.995138 126.483307,9.191915 
	C129.837082,11.848847 132.541962,12.461448 136.343842,10.218895 
	C139.602325,8.296869 143.355820,7.214027 147.386841,5.820135 
	C147.883286,5.880217 148.185562,6.173348 148.185562,6.173348 
z"/>
<path fill="#1E9BF0" opacity="1.000000" stroke="none" 
	d="
M147.735321,5.730440 
	C147.912964,5.460965 148.238556,5.341267 148.564148,5.221567 
	C148.581757,5.453210 148.599365,5.684855 148.401276,6.044923 
	C148.185562,6.173348 147.883286,5.880217 147.735321,5.730440 
z"/>
</svg>